<?xml version="1.0" standalone="no"?>
<!DOCTYPE svg PUBLIC "-//W3C//DTD SVG 1.1//EN" "http://www.w3.org/Graphics/SVG/1.1/DTD/svg11.dtd" >
<svg xmlns="http://www.w3.org/2000/svg">
<metadata>Generated by IcoMoon</metadata>
<defs>
<font id="hui" horiz-adv-x="1024">
<font-face units-per-em="1024" ascent="960" descent="-64" />
<missing-glyph horiz-adv-x="1024" />
<glyph unicode="&#x20;" horiz-adv-x="512" d="" />
<glyph unicode="&#xe900;" glyph-name="alert-16" d="M526.080 847.744c-2.76 5.040-8.028 8.4-14.080 8.4s-11.32-3.36-14.038-8.317l-0.042-0.083-389.248-728.192c-1.193-2.185-1.894-4.787-1.894-7.552 0-8.828 7.149-15.985 15.973-16h778.497c8.826 0.015 15.974 7.172 15.974 16 0 2.765-0.702 5.367-1.936 7.636l0.042-0.084-389.248 728.192zM413.248 892.992c42.176 78.976 155.328 78.976 197.504 0l389.248-728.192c8.329-15.281 13.227-33.469 13.227-52.8 0-61.848-50.132-111.988-111.978-112h-778.497c-61.847 0.012-111.979 50.152-111.979 112 0 19.331 4.898 37.519 13.52 53.389l-0.293-0.589 389.248 728.192zM576 256c0-35.346-28.654-64-64-64s-64 28.654-64 64v0c0 35.346 28.654 64 64 64s64-28.654 64-64v0zM560 592c0 26.51-21.49 48-48 48s-48-21.49-48-48v0-160c0-26.51 21.49-48 48-48s48 21.49 48 48v0 160z" />
<glyph unicode="&#xe901;" glyph-name="archive-16" d="M112 800c-8.837 0-16-7.163-16-16v0-96c0-8.832 7.168-16 16-16h800c8.837 0 16 7.163 16 16v0 96c0 8.837-7.163 16-16 16v0h-800zM0 784c0 61.824 50.176 112 112 112h800c61.824 0 112-50.176 112-112v-96c0-61.856-50.144-112-112-112v0h-800c-61.856 0-112 50.144-112 112v0 96zM112 512c26.51 0 48-21.49 48-48v0-352c0-8.832 7.168-16 16-16h672c8.837 0 16 7.163 16 16v0 352c0 26.51 21.49 48 48 48s48-21.49 48-48v0-352c0-61.856-50.144-112-112-112v0h-672c-61.856 0-112 50.144-112 112v0 352c0 26.51 21.49 48 48 48v0zM400 448c-26.51 0-48-21.49-48-48s21.49-48 48-48v0h224c26.51 0 48 21.49 48 48s-21.49 48-48 48v0h-224z" />
<glyph unicode="&#xe902;" glyph-name="arrow-both-16" d="M238.080 721.92c8.549 7.982 20.063 12.883 32.723 12.883 26.51 0 48-21.49 48-48 0-12.659-4.901-24.174-12.908-32.751l0.026 0.028-142.080-142.080h696.32l-142.080 142.080c-7.982 8.549-12.883 20.063-12.883 32.723 0 26.51 21.49 48 48 48 12.659 0 24.174-4.901 32.751-12.908l-0.028 0.026 224-224c8.674-8.684 14.038-20.676 14.038-33.92s-5.364-25.236-14.038-33.921l-223.999-223.999c-8.787-9.411-21.267-15.277-35.117-15.277-26.51 0-48 21.49-48 48 0 13.85 5.866 26.33 15.249 35.092l0.028 0.026 142.080 142.080h-696.32l142.080-142.080c9.411-8.787 15.277-21.267 15.277-35.117 0-26.51-21.49-48-48-48-13.85 0-26.33 5.866-35.092 15.249l-0.026 0.028-224 224c-8.674 8.684-14.038 20.676-14.038 33.92s5.364 25.236 14.038 33.921l223.999 223.999z" />
<glyph unicode="&#xe903;" glyph-name="arrow-down-16" d="M833.92 433.92c8.674-8.684 14.038-20.676 14.038-33.92s-5.364-25.236-14.038-33.921l-271.999-271.999c-8.684-8.674-20.676-14.038-33.92-14.038s-25.236 5.364-33.921 14.038l-271.999 271.999c-7.982 8.549-12.883 20.063-12.883 32.723 0 26.51 21.49 48 48 48 12.659 0 24.174-4.901 32.751-12.908l-0.028 0.026 190.080-190.080v476.16c0 26.51 21.49 48 48 48s48-21.49 48-48v0-476.16l190.080 190.080c8.684 8.674 20.676 14.038 33.92 14.038s25.236-5.364 33.921-14.038l-0.001 0.001z" />
<glyph unicode="&#xe904;" glyph-name="arrow-left-16" d="M497.92 158.080c-8.684-8.674-20.676-14.038-33.92-14.038s-25.236 5.364-33.921 14.038l-271.999 271.999c-8.674 8.684-14.038 20.676-14.038 33.92s5.364 25.236 14.038 33.921l271.999 271.999c8.549 7.982 20.063 12.883 32.723 12.883 26.51 0 48-21.49 48-48 0-12.659-4.901-24.174-12.908-32.751l0.026 0.028-190.080-190.080h476.16c26.51 0 48-21.49 48-48s-21.49-48-48-48v0h-476.16l190.080-190.080c8.674-8.684 14.038-20.676 14.038-33.92s-5.364-25.236-14.038-33.921l0.001 0.001z" />
<glyph unicode="&#xe905;" glyph-name="arrow-right-16" d="M526.080 769.92c8.684 8.674 20.676 14.038 33.92 14.038s25.236-5.364 33.921-14.038l271.999-271.999c8.674-8.684 14.038-20.676 14.038-33.92s-5.364-25.236-14.038-33.921l-271.999-271.999c-8.549-7.982-20.063-12.883-32.723-12.883-26.51 0-48 21.49-48 48 0 12.659 4.901 24.174 12.908 32.751l-0.026-0.028 190.080 190.080h-476.16c-26.51 0-48 21.49-48 48s21.49 48 48 48v0h476.16l-190.080 190.080c-8.674 8.684-14.038 20.676-14.038 33.92s5.364 25.236 14.038 33.921l-0.001-0.001z" />
<glyph unicode="&#xe906;" glyph-name="arrow-up-16" d="M222.080 462.080c-8.674 8.684-14.038 20.676-14.038 33.92s5.364 25.236 14.038 33.921l271.999 271.999c8.684 8.674 20.676 14.038 33.92 14.038s25.236-5.364 33.921-14.038l271.999-271.999c7.982-8.549 12.883-20.063 12.883-32.723 0-26.51-21.49-48-48-48-12.659 0-24.174 4.901-32.751 12.908l0.028-0.026-190.080 190.080v-476.16c0-26.51-21.49-48-48-48s-48 21.49-48 48v0 476.16l-190.080-190.080c-8.684-8.674-20.676-14.038-33.92-14.038s-25.236 5.364-33.921 14.038l0.001-0.001z" />
<glyph unicode="&#xe907;" glyph-name="beaker-16" d="M320 589.952v210.048h-16c-26.51 0-48 21.49-48 48s21.49 48 48 48v0h416c26.51 0 48-21.49 48-48s-21.49-48-48-48v0h-16v-210.048l234.624-368.64c60.992-95.872-7.872-221.312-121.536-221.312h-610.176c-113.664 0-182.528 125.44-121.536 221.312l234.624 368.64zM608 800h-192v-224c0-0.014 0-0.031 0-0.047 0-9.554-2.791-18.456-7.603-25.935l0.115 0.19-105.792-166.208h418.56l-105.792 166.208c-4.697 7.289-7.488 16.191-7.488 25.745 0 0.017 0 0.033 0 0.050v-0.003 224zM166.4 169.792l0.114 0.189c-4.83-7.489-7.633-16.408-7.633-25.981 0-26.51 21.49-48 48-48 0.011 0 0.021 0 0.030 0h610.174c0.011 0 0.021 0 0.032 0 26.51 0 48 21.49 48 48 0 9.574-2.803 18.493-7.518 25.792l-75.2 118.208h-540.8l-75.2-118.208z" />
<glyph unicode="&#xe908;" glyph-name="bell-16" d="M512-64c0.013 0 0.028 0 0.044 0 65.052 0 118.77 48.528 126.928 111.357l0.068 0.643c1.088 8.768-6.208 16-15.040 16h-224c-8.832 0-16.128-7.232-15.040-16 8.226-63.472 61.944-112 126.996-112 0.015 0 0.031 0 0.046 0h-0.002zM512 864c-123.712 0-224-100.288-224-224v0-188.608c0-22.144-6.528-43.712-18.816-62.080l-108.992-163.584c-0.12-0.179-0.192-0.4-0.192-0.637 0-0.001 0-0.002 0-0.003v0l0.064-0.384c0-0.128 0.128-0.256 0.256-0.384 0.106-0.109 0.234-0.196 0.377-0.253l0.007-0.003 0.448-0.064 702.144 0.064c0.151 0.058 0.279 0.145 0.384 0.255v0.001c0.111 0.105 0.198 0.233 0.254 0.377l0.002 0.007 0.064 0.448c0 0.007 0 0.015 0 0.022 0 0.231-0.072 0.445-0.195 0.621l0.002-0.004-108.992 163.456c-11.777 17.445-18.804 38.941-18.816 62.077v188.675c0 123.712-100.288 224-224 224v0zM192 640c0 176.731 143.269 320 320 320s320-143.269 320-320v0-188.608c0-3.2 0.96-6.272 2.688-8.896l108.992-163.52c10.195-15.129 16.273-33.767 16.273-53.824 0-53.639-43.469-97.125-97.102-97.152h-701.698c-53.654 0.003-97.147 43.498-97.147 97.152 0 20.084 6.094 38.745 16.535 54.234l-0.22-0.346 108.992 163.456c1.684 2.494 2.688 5.568 2.688 8.876 0 0.007 0 0.014 0 0.021v-0.001 188.608z" />
<glyph unicode="&#xe909;" glyph-name="bell-slash-16" d="M512 864v0c123.712 0 224-100.288 224-224v-151.872c0-26.51 21.49-48 48-48s48 21.49 48 48v151.868c0 0.023 0 0.045 0 0.068 0 176.731-143.269 320-320 320-91.087 0-173.285-38.057-231.68-99.264l0.017 0.018c-8.236-8.622-13.294-20.305-13.294-33.17 0-26.526 21.503-48.029 48.029-48.029 13.661 0 25.989 5.703 34.752 14.877 40.896 42.88 98.368 69.504 162.176 69.504zM267.648 684.16l0.166-0.106c0.337-0.227 0.67-0.459 0.858-0.598l646.841-468.36c0.272-0.208 0.543-0.418 0.647-0.504l88.161-63.849c12.552-8.658 20.779-23.139 20.779-39.541 0-26.51-21.49-48-48-48-11.063 0-21.253 3.743-29.26 9.95l-75.776 54.848h-710.912c-53.653 0.003-97.147 43.498-97.147 97.152 0 20.084 6.094 38.745 16.315 53.888l108.956 163.399c1.72 2.551 2.724 5.625 2.724 8.933 0 0.007 0 0.014 0 0.020v169.088l-172.321 124.777c-12.552 8.658-20.779 23.139-20.779 39.541 0 26.51 21.49 48 48 48 11.063 0 21.253-3.743 29.26-9.95l191.488-138.688zM739.52 224l-451.52 326.976v-99.584c0-22.144-6.528-43.712-18.816-62.080l-108.992-163.584c-0.12-0.179-0.192-0.4-0.192-0.637 0-0.001 0-0.002 0-0.003v0c-0.001-0.015-0.001-0.033-0.001-0.051 0-0.285 0.124-0.54 0.32-0.716l0.001-0.001c0.106-0.109 0.234-0.196 0.377-0.253l0.007-0.003 0.448-0.064h578.368zM512-64h0.002c-0.015 0-0.031 0-0.046 0-65.052 0-118.77 48.528-126.996 112-1.088 8.768 6.208 16 15.040 16h224c8.832 0 16.128-7.232 15.040-16l-0.068-0.643c-8.158-62.829-61.876-111.357-126.928-111.357-0.015 0-0.031 0-0.044 0z" />
<glyph unicode="&#xe90a;" glyph-name="bold-16" d="M256 832h287.997c0.019 0 0.038 0 0.057 0 123.712 0 224-100.288 224-224 0-48.729-15.56-93.825-41.526-129.92l0.923-0.544c62.831-39.677 104.563-109.733 104.563-189.536 0-123.712-100.288-224-224-224-0.005 0-0.010 0-0.014 0h-352c-35.346 0-64 28.654-64 64v640c0 35.346 28.654 64 64 64zM544 512c53.019 0 96 42.981 96 96s-42.981 96-96 96v0h-224v-192h224zM320 384v-192h288c53.019 0 96 42.981 96 96s-42.981 96-96 96v0h-288z" />
<glyph unicode="&#xe90b;" glyph-name="book-16" d="M0 848c0 26.51 21.49 48 48 48v0h272.192c78.528 0 148.288-37.76 192-96.064 44.173 58.586 113.638 96.064 191.856 96.064 0.118 0 0.236 0 0.354 0h271.662c26.51 0 48-21.49 48-48v0-672c0-26.51-21.49-48-48-48v0h-288.448c0 0-0.001 0-0.001 0-39.764 0-75.764-16.117-101.823-42.176v0l-39.808-39.744c-8.684-8.674-20.676-14.038-33.92-14.038s-25.236 5.364-33.921 14.038l-39.807 39.743c-26.059 26.059-62.059 42.176-101.823 42.176 0 0-0.001 0-0.001 0h-288.512c-26.51 0-48 21.49-48 48v0 672zM560.32 656l-0.256-468.608c37.888 23.744 82.048 36.608 127.488 36.608h240.448v576h-223.68c-79.529 0-144-64.471-144-144zM464.064 187.264l0.256 324.672-0.128 144.192c-0.073 79.474-64.516 143.872-144 143.872h-224.192v-576h240.448c0.002 0 0.005 0 0.008 0 47.305 0 91.414-13.686 128.583-37.315l-0.975 0.579z" />
<glyph unicode="&#xe90c;" glyph-name="bookmark-16" d="M304 800c-8.837 0-16-7.163-16-16v0-634.24l193.472 159.296c8.228 6.821 18.895 10.959 30.528 10.959s22.3-4.138 30.608-11.023l-0.080 0.064 193.472-159.36v634.304c0 8.837-7.163 16-16 16v0h-416zM192 784c0 61.824 50.176 112 112 112h416c61.824 0 112-50.176 112-112v-736c0-0.004 0-0.010 0-0.015 0-26.51-21.49-48-48-48-11.633 0-22.3 4.138-30.608 11.023l0.080-0.064-241.472 198.848-241.472-198.848c-8.228-6.821-18.895-10.959-30.528-10.959-26.51 0-48 21.49-48 48 0 0.005 0 0.010 0 0.016v-0.001 736z" />
<glyph unicode="&#xe90d;" glyph-name="bookmark-slash-16" d="M76.16 886.848l191.633-138.785c0.294-0.207 0.586-0.417 0.751-0.543l543.32-393.426c0.293-0.208 0.585-0.419 0.68-0.494l191.777-138.857c12.552-8.658 20.779-23.139 20.779-39.541 0-26.51-21.49-48-48-48-11.063 0-21.253 3.743-29.26 9.95l-115.84 83.84v-172.99c0-0.012 0-0.025 0-0.037 0-26.51-21.49-48-48-48-11.029 0-21.19 3.72-29.184 9.891l-242.816 185.728-242.704-185.645c-8.106-6.254-18.266-9.974-29.296-9.974-26.51 0-48 21.49-48 48 0 0.012 0 0.025 0 0.035v636.48l-172.321 124.777c-12.552 8.658-20.779 23.139-20.779 39.541 0 26.51 21.49 48 48 48 11.063 0 21.253-3.743 29.26-9.95zM288 615.040v-469.824l194.816 148.992c7.994 6.171 18.155 9.891 29.184 9.891s21.19-3.72 29.296-9.974l-0.112 0.083 194.816-148.992v145.344l-448 324.48zM375.36 896h344.64c61.856 0 112-50.144 112-112v-231.936c0-26.51-21.49-48-48-48s-48 21.49-48 48v231.936c0 8.837-7.163 16-16 16h-344.64c-26.51 0-48 21.49-48 48s21.49 48 48 48z" />
<glyph unicode="&#xe90e;" glyph-name="briefcase-16" d="M432 960h160c61.856 0 112-50.144 112-112v-80h208c61.856 0 112-50.144 112-112v-544c0-61.856-50.144-112-112-112h-800c-61.824 0-112 50.176-112 112v544c0 61.856 50.144 112 112 112h208v80c0 61.856 50.144 112 112 112zM608 768v80c0 8.837-7.163 16-16 16v0h-160c-8.837 0-16-7.163-16-16v0-80h192zM320 672h-208c-8.837 0-16-7.163-16-16v0-80c0-70.692 57.308-128 128-128v0h576c70.692 0 128 57.308 128 128v0 80c0 8.837-7.163 16-16 16v0h-592zM224 352c-0.115 0-0.251 0-0.387 0-47.77 0-92.031 15.022-128.317 40.599l0.704-0.471v-280.128c0-8.832 7.168-16 16-16h800c8.837 0 16 7.163 16 16v0 280.128c-35.582-25.107-79.843-40.128-127.613-40.128-0.136 0-0.272 0-0.408 0h-575.979z" />
<glyph unicode="&#xe90f;" glyph-name="broadcast-16" d="M209.088 866.752c19.2-18.304 19.968-48.64 1.664-67.84-71.030-74.257-114.753-175.147-114.753-286.249 0-0.233 0-0.466 0.001-0.699v0.036c0-0.219-0.001-0.479-0.001-0.739 0-111.078 43.723-211.944 114.898-286.325l-0.145 0.153c7.697-8.481 12.408-19.793 12.408-32.206 0-26.51-21.49-48-48-48-13.241 0-25.229 5.361-33.913 14.031l0.001-0.001c-5.686 5.969-11.453 12.303-17.077 18.766l-0.587 0.69c-76.797 88.786-123.585 205.376-123.585 332.894 0 0.26 0 0.519 0.001 0.778v-0.041c0 136.896 53.76 261.312 141.248 353.088 8.759 9.181 21.089 14.89 34.753 14.89 12.836 0 24.494-5.038 33.107-13.245l-0.019 0.018zM814.912 866.752c8.593 8.188 20.252 13.226 33.087 13.226 13.663 0 25.993-5.709 34.735-14.871l0.018-0.019c87.433-91.448 141.248-215.675 141.248-352.47 0-0.217 0-0.434 0-0.651v0.033c0-136.896-53.76-261.312-141.248-353.088-8.817-9.717-21.495-15.794-35.592-15.794-26.51 0-48 21.49-48 48 0 13.269 5.384 25.281 14.087 33.969l0.001 0.001c71.030 74.257 114.753 175.147 114.753 286.249 0 0.233 0 0.466-0.001 0.699v-0.036c0 0.197 0.001 0.43 0.001 0.663 0 111.102-43.722 211.992-114.899 286.403l0.146-0.154c-8.188 8.593-13.226 20.252-13.226 33.087 0 13.663 5.709 25.993 14.871 34.735l0.019 0.018zM560 410.752c38.147 18.402 64 56.778 64 101.193 0 61.856-50.144 112-112 112s-112-50.144-112-112c0-44.415 25.853-82.791 63.331-100.901l0.669-0.291v-362.752c0-26.51 21.49-48 48-48s48 21.49 48 48v0 362.752zM341.184 656.896c7.11 8.321 11.437 19.207 11.437 31.104 0 26.517-21.496 48.013-48.013 48.013-14.62 0-27.714-6.535-36.521-16.843l-0.055-0.066c-47.268-55.284-76.032-127.62-76.032-206.674 0-0.151 0-0.302 0-0.453v0.023c0-78.528 28.352-150.528 75.328-206.208 8.831-9.886 21.616-16.079 35.848-16.079 26.51 0 48 21.49 48 48 0 11.379-3.96 21.833-10.576 30.060l0.072-0.093c-32.753 38.556-52.672 88.903-52.672 143.904 0 0.147 0 0.293 0 0.439v-0.023c0 55.296 19.968 105.856 53.184 144.896zM756.672 718.208c-8.831 9.886-21.616 16.079-35.848 16.079-26.51 0-48-21.49-48-48 0-11.379 3.96-21.833 10.576-30.060l-0.072 0.093c32.896-39.040 52.672-89.28 52.672-144.32s-19.84-105.344-52.672-144.32c-7.542-8.442-12.152-19.643-12.152-31.921 0-26.51 21.49-48 48-48 15.131 0 28.626 7.001 37.424 17.94l0.072 0.093c46.842 55.154 75.328 127.173 75.328 205.844 0 0.128 0 0.256 0 0.384v-0.020c0 0.108 0 0.236 0 0.364 0 78.672-28.487 150.69-75.708 206.302l0.379-0.458z" />
<glyph unicode="&#xe910;" glyph-name="browser-16" d="M384 768h64v-64h-64v64zM256 768h64v-64h-64v64zM128 768h64v-64h-64v64zM896 128h-768v512h768v-512zM896 704h-384v64h384v-64zM960 768c0 35.2-28.8 64-64 64h-768c-35.2 0-64-28.8-64-64v-640c0-35.2 28.8-64 64-64h768c35.2 0 64 28.8 64 64v640z" />
<glyph unicode="&#xe911;" glyph-name="bug-16" d="M704 320h192v64h-192v64l202.88 65.92-21.76 60.16-181.12-62.080v64c0 35.2-28.8 64-64 64v64c0 30.72-23.040 56.32-53.12 62.080l65.92 65.92h115.2v64h-140.8l-128-128h-37.76l-128.64 128h-140.8v-64h115.2l65.92-65.92c-30.080-5.76-53.12-30.72-53.12-62.080v-64c-35.2 0-64-28.8-64-64v-64l-181.12 62.080-21.76-60.16 202.88-65.92v-64h-192v-64h192v-64l-202.88-65.92 21.76-60.16 181.12 62.080v-64c0-35.2 28.8-64 64-64h64l64 64v448h64v-448l64-64h64c35.2 0 64 28.8 64 64v64l181.12-62.080 21.76 60.16-202.88 65.92v64zM576 640h-192v64h192v-64z" />
<glyph unicode="&#xe912;" glyph-name="calendar-16" d="M304 960c26.51 0 48-21.49 48-48v0-80h320v80c0 26.51 21.49 48 48 48s48-21.49 48-48v0-80h80c61.824 0 112-50.176 112-112v-672c0-61.856-50.144-112-112-112v0h-672c-61.856 0-112 50.144-112 112v0 672c0 61.824 50.176 112 112 112h80v80c0 26.51 21.49 48 48 48v0zM304 736h-128c-8.837 0-16-7.163-16-16v-144h704v144c0 8.837-7.163 16-16 16h-544zM160 480v-432c0-8.832 7.168-16 16-16h672c8.837 0 16 7.163 16 16v0 432h-704z" />
<glyph unicode="&#xe913;" glyph-name="check-16" d="M881.92 689.92c8.674-8.684 14.038-20.676 14.038-33.92s-5.364-25.236-14.038-33.921l-463.999-463.999c-8.684-8.674-20.676-14.038-33.92-14.038s-25.236 5.364-33.921 14.038l-207.999 207.999c-7.982 8.549-12.883 20.063-12.883 32.723 0 26.51 21.49 48 48 48 12.659 0 24.174-4.901 32.751-12.908l-0.028 0.026 174.080-174.080 430.080 430.080c8.684 8.674 20.676 14.038 33.92 14.038s25.236-5.364 33.921-14.038l-0.001 0.001z" />
<glyph unicode="&#xe914;" glyph-name="check-circle-16" d="M96 448v0c0-229.75 186.25-416 416-416s416 186.25 416 416v0c0 229.75-186.25 416-416 416s-416-186.25-416-416zM0 448c0 282.77 229.23 512 512 512s512-229.23 512-512v0c0-282.77-229.23-512-512-512s-512 229.23-512 512v0zM753.92 558.080l-287.999-287.999c-8.685-8.674-20.676-14.038-33.921-14.038s-25.236 5.364-33.92 14.038l-127.974 127.972c-8.008 8.576-12.908 20.091-12.908 32.751 0 26.51 21.49 48 48 48 12.659 0 24.174-4.901 32.723-12.883l94.080-94.080 254.052 254.054c8.576 8.008 20.091 12.908 32.751 12.908 26.51 0 48-21.49 48-48 0-12.659-4.901-24.174-12.883-32.723z" />
<glyph unicode="&#xe915;" glyph-name="check-circle-fill-16" d="M512-64c282.77 0 512 229.23 512 512s-229.23 512-512 512v0c-282.77 0-512-229.23-512-512s229.23-512 512-512v0zM753.92 558.080c7.982 8.549 12.883 20.063 12.883 32.723 0 26.51-21.49 48-48 48-12.659 0-24.174-4.901-32.751-12.908l0.028 0.026-254.080-254.080-94.080 94.080c-8.549 7.982-20.063 12.883-32.723 12.883-26.51 0-48-21.49-48-48 0-12.659 4.901-24.174 12.908-32.751l-0.026 0.028 128-128c8.684-8.674 20.676-14.038 33.92-14.038s25.236 5.364 33.921 14.038l287.999 287.999z" />
<glyph unicode="&#xe916;" glyph-name="checklist-16" d="M160 848c0 8.837 7.163 16 16 16v0h544c8.837 0 16-7.163 16-16v0-495.104c0-26.51 21.49-48 48-48s48 21.49 48 48v0 495.104c0 61.856-50.144 112-112 112v0h-544c-61.856 0-112-50.144-112-112v0-736c0-61.824 50.176-112 112-112h202.88c26.51 0 48 21.49 48 48s-21.49 48-48 48v0h-202.88c-8.837 0-16 7.163-16 16v0 736zM304 704c-26.51 0-48-21.49-48-48s21.49-48 48-48v0h288c26.51 0 48 21.49 48 48s-21.49 48-48 48v0h-288zM256 464c0 26.51 21.49 48 48 48v0h128c26.51 0 48-21.49 48-48s-21.49-48-48-48v0h-128c-26.51 0-48 21.49-48 48v0zM1009.536 237.632c8.939 8.729 14.483 20.901 14.483 34.368 0 26.52-21.499 48.019-48.019 48.019-13.053 0-24.89-5.208-33.545-13.66l0.009 0.009-257.664-251.648-90.816 91.2c-8.557 8.020-20.099 12.946-32.791 12.946-26.51 0-48-21.49-48-48 0-12.628 4.877-24.118 12.85-32.687l-0.027 0.029 124.352-124.8c8.694-8.733 20.725-14.137 34.019-14.137 13.038 0 24.861 5.198 33.511 13.634l-0.010-0.010 291.648 284.8z" />
<glyph unicode="&#xe917;" glyph-name="chevron-down-16" d="M817.92 561.92c8.674-8.684 14.038-20.676 14.038-33.92s-5.364-25.236-14.038-33.921l-271.999-271.999c-8.684-8.674-20.676-14.038-33.92-14.038s-25.236 5.364-33.921 14.038l-271.999 271.999c-7.982 8.549-12.883 20.063-12.883 32.723 0 26.51 21.49 48 48 48 12.659 0 24.174-4.901 32.751-12.908l-0.028 0.026 238.080-238.080 238.080 238.080c8.684 8.674 20.676 14.038 33.92 14.038s25.236-5.364 33.921-14.038l-0.001 0.001z" />
<glyph unicode="&#xe918;" glyph-name="chevron-left-16" d="M625.92 142.080c-8.684-8.674-20.676-14.038-33.92-14.038s-25.236 5.364-33.921 14.038l-271.999 271.999c-8.674 8.684-14.038 20.676-14.038 33.92s5.364 25.236 14.038 33.921l271.999 271.999c8.549 7.982 20.063 12.883 32.723 12.883 26.51 0 48-21.49 48-48 0-12.659-4.901-24.174-12.908-32.751l0.026 0.028-238.080-238.080 238.080-238.080c8.674-8.684 14.038-20.676 14.038-33.92s-5.364-25.236-14.038-33.921l0.001 0.001z" />
<glyph unicode="&#xe919;" glyph-name="chevron-right-16" d="M398.080 753.92c8.684 8.674 20.676 14.038 33.92 14.038s25.236-5.364 33.921-14.038l271.999-271.999c8.674-8.684 14.038-20.676 14.038-33.92s-5.364-25.236-14.038-33.921l-271.999-271.999c-8.549-7.982-20.063-12.883-32.723-12.883-26.51 0-48 21.49-48 48 0 12.659 4.901 24.174 12.908 32.751l-0.026-0.028 238.080 238.080-238.080 238.080c-8.674 8.684-14.038 20.676-14.038 33.92s5.364 25.236 14.038 33.921l-0.001-0.001z" />
<glyph unicode="&#xe91a;" glyph-name="chevron-up-16" d="M206.080 334.080c-8.674 8.684-14.038 20.676-14.038 33.92s5.364 25.236 14.038 33.921l271.999 271.999c8.684 8.674 20.676 14.038 33.92 14.038s25.236-5.364 33.921-14.038l271.999-271.999c7.982-8.549 12.883-20.063 12.883-32.723 0-26.51-21.49-48-48-48-12.659 0-24.174 4.901-32.751 12.908l0.028-0.026-238.080 238.080-238.080-238.080c-8.684-8.674-20.676-14.038-33.92-14.038s-25.236 5.364-33.921 14.038l0.001-0.001z" />
<glyph unicode="&#xe91b;" glyph-name="circle-slash-16" d="M96 448c0 0.001 0 0.002 0 0.003 0 229.75 186.25 416 416 416 97.956 0 188.005-33.857 259.082-90.507l-0.842 0.648-584.384-584.384c-55.995 70.018-89.856 159.861-89.856 257.613 0 0.22 0 0.441 0.001 0.661v-0.034zM253.76 121.856l584.384 584.384-0.648 0.841c56.656-71.079 90.517-161.133 90.517-259.095 0-229.75-186.25-416-416-416-97.962 0-188.016 33.861-258.253 89.869zM512 960c-282.77 0-512-229.23-512-512s229.23-512 512-512v0c282.77 0 512 229.23 512 512s-229.23 512-512 512v0z" />
<glyph unicode="&#xe91c;" glyph-name="clippy-16" d="M368 896c-26.51 0-48-21.49-48-48v0-192c0-26.496 21.504-48 48-48h288c26.51 0 48 21.49 48 48v0 192c0 26.51-21.49 48-48 48v0h-288zM416 704v96h192v-96h-192zM232.064 733.888c14.415 8.463 23.939 23.887 23.939 41.536 0 26.511-21.492 48.003-48.003 48.003-8.862 0-17.164-2.402-24.289-6.59l0.225 0.122c-33.678-19.734-55.936-55.747-55.936-96.958 0-0.001 0-0.002 0-0.002v0-608c0-61.824 50.176-112 112-112h544c61.856 0 112 50.144 112 112v0 608c0 0.001 0 0.001 0 0.002 0 41.211-22.258 77.224-55.409 96.672l-0.527 0.286c-6.9 4.066-15.202 6.467-24.064 6.467-26.511 0-48.003-21.492-48.003-48.003 0-17.649 9.525-33.073 23.714-41.414l0.225-0.122c4.851-2.809 8.062-7.973 8.064-13.888v0-608c0-8.837-7.163-16-16-16v0h-544c-8.837 0-16 7.163-16 16v0 608c0.002 5.915 3.213 11.079 7.987 13.847l0.077 0.041z" />
<glyph unicode="&#xe91d;" glyph-name="clock-16" d="M96 448c0 229.75 186.25 416 416 416s416-186.25 416-416v0c0-229.75-186.25-416-416-416s-416 186.25-416 416v0zM512 960c-282.77 0-512-229.23-512-512s229.23-512 512-512v0c282.77 0 512 229.23 512 512s-229.23 512-512 512v0zM544 656c0 26.51-21.49 48-48 48s-48-21.49-48-48v0-224c0.005-20.072 12.33-37.265 29.824-44.428l0.32-0.116 160-64c4.897-1.845 10.557-2.913 16.467-2.913 26.51 0 48 21.49 48 48 0 19.572-11.714 36.408-28.513 43.88l-0.306 0.121-129.792 51.968v191.488z" />
<glyph unicode="&#xe91e;" glyph-name="code-16" d="M302.080 753.92c8.549 7.982 20.063 12.883 32.723 12.883 26.51 0 48-21.49 48-48 0-12.659-4.901-24.174-12.908-32.751l0.026 0.028-238.080-238.080 238.080-238.080c9.411-8.787 15.277-21.267 15.277-35.117 0-26.51-21.49-48-48-48-13.85 0-26.33 5.866-35.092 15.249l-0.026 0.028-272 272c-8.674 8.684-14.038 20.676-14.038 33.92s5.364 25.236 14.038 33.921l271.999 271.999zM721.92 753.92c-8.787 9.411-21.267 15.277-35.117 15.277-26.51 0-48-21.49-48-48 0-13.85 5.866-26.33 15.249-35.092l0.028-0.026 238.080-238.080-238.080-238.080c-9.411-8.787-15.277-21.267-15.277-35.117 0-26.51 21.49-48 48-48 13.85 0 26.33 5.866 35.092 15.249l0.026 0.028 272 272c8.674 8.684 14.038 20.676 14.038 33.92s-5.364 25.236-14.038 33.921l-271.999 271.999z" />
<glyph unicode="&#xe91f;" glyph-name="code-review-16" d="M96 784c0 8.837 7.163 16 16 16v0h800c8.837 0 16-7.163 16-16v0-544c0-8.837-7.163-16-16-16v0h-416c-13.25-0.012-25.241-5.391-33.919-14.079l-174.081-174.081v140.16c0 26.51-21.49 48-48 48v0h-128c-8.837 0-16 7.163-16 16v0 544zM112 896c-61.856 0-112-50.144-112-112v0-544c0-61.824 50.176-112 112-112h80v-98.752c0.019-51.485 41.76-93.215 93.248-93.215 25.742 0 49.047 10.431 65.92 27.296l164.736 164.672h396.096c61.856 0 112 50.144 112 112v0 544c0 61.856-50.144 112-112 112v0h-800zM433.92 673.92c8.674-8.684 14.038-20.676 14.038-33.92s-5.364-25.236-14.038-33.921l-94.079-94.079 94.080-94.080c7.982-8.549 12.883-20.063 12.883-32.723 0-26.51-21.49-48-48-48-12.659 0-24.174 4.901-32.751 12.908l0.028-0.026-128 128c-8.674 8.684-14.038 20.676-14.038 33.92s5.364 25.236 14.038 33.921l127.999 127.999c8.684 8.674 20.676 14.038 33.92 14.038s25.236-5.364 33.921-14.038l-0.001 0.001zM590.080 673.92c-8.674-8.684-14.038-20.676-14.038-33.92s5.364-25.236 14.038-33.921l94.079-94.079-94.080-94.080c-7.982-8.549-12.883-20.063-12.883-32.723 0-26.51 21.49-48 48-48 12.659 0 24.174 4.901 32.751 12.908l-0.028-0.026 128 128c8.674 8.684 14.038 20.676 14.038 33.92s-5.364 25.236-14.038 33.921l-127.999 127.999c-8.684 8.674-20.676 14.038-33.92 14.038s-25.236-5.364-33.921-14.038l0.001 0.001z" />
<glyph unicode="&#xe920;" glyph-name="code-square-16" d="M112 864c-8.837 0-16-7.163-16-16v0-800c0-8.832 7.168-16 16-16h800c8.837 0 16 7.163 16 16v0 800c0 8.837-7.163 16-16 16v0h-800zM0 848c0 61.824 50.176 112 112 112h800c61.824 0 112-50.176 112-112v-800c0-61.856-50.144-112-112-112v0h-800c-61.856 0-112 50.144-112 112v0 800zM590.080 609.92c-8.674-8.684-14.038-20.676-14.038-33.92s5.364-25.236 14.038-33.921l94.079-94.079-94.080-94.080c-9.411-8.787-15.277-21.267-15.277-35.117 0-26.51 21.49-48 48-48 13.85 0 26.33 5.866 35.092 15.249l0.026 0.028 128 128c8.674 8.684 14.038 20.676 14.038 33.92s-5.364 25.236-14.038 33.921l-127.999 127.999c-8.684 8.674-20.676 14.038-33.92 14.038s-25.236-5.364-33.921-14.038l0.001 0.001zM433.92 542.080c7.982 8.549 12.883 20.063 12.883 32.723 0 26.51-21.49 48-48 48-12.659 0-24.174-4.901-32.751-12.908l0.028 0.026-128-128c-8.674-8.684-14.038-20.676-14.038-33.92s5.364-25.236 14.038-33.921l127.999-127.999c8.787-9.411 21.267-15.277 35.117-15.277 26.51 0 48 21.49 48 48 0 13.85-5.866 26.33-15.249 35.092l-0.028 0.026-94.080 94.080 94.080 94.080z" />
<glyph unicode="&#xe921;" glyph-name="comment-16" d="M176 800c-8.837 0-16-7.163-16-16v0-480c0-8.832 7.168-16 16-16h128c26.51 0 48-21.49 48-48v0-140.16l174.080 174.080c8.679 8.689 20.67 14.068 33.918 14.080h288.002c8.837 0 16 7.163 16 16v0 480c0 8.837-7.163 16-16 16v0h-672zM64 784c0 61.824 50.176 112 112 112h672c61.824 0 112-50.176 112-112v-480c0-61.856-50.144-112-112-112v0h-268.16l-164.672-164.672c-16.873-16.865-40.178-27.295-65.92-27.295-51.488 0-93.229 41.73-93.248 93.214v98.754h-80c-61.856 0-112 50.144-112 112v0 480z" />
<glyph unicode="&#xe922;" glyph-name="comment-discussion-16" d="M96 784c0 8.837 7.163 16 16 16v0h544c8.837 0 16-7.163 16-16v0-352c0-8.837-7.163-16-16-16v0h-224c-13.25-0.012-25.241-5.391-33.919-14.079l-174.081-174.081v140.16c0 26.51-21.49 48-48 48v0h-64c-8.837 0-16 7.163-16 16v0 352zM112 896c-61.856 0-112-50.144-112-112v0-352c0-61.824 50.176-112 112-112h16v-98.752c0.019-51.485 41.76-93.215 93.248-93.215 25.742 0 49.047 10.431 65.92 27.296l164.736 164.672h204.096c61.856 0 112 50.144 112 112v0 352c0 61.856-50.144 112-112 112v0h-544zM928 656c0 8.837-7.163 16-16 16v0h-32c-26.51 0-48 21.49-48 48s21.49 48 48 48v0h32c61.824 0 112-50.176 112-112v-352c0-61.856-50.144-112-112-112v0h-16v-98.752c-0.019-51.485-41.76-93.215-93.248-93.215-25.742 0-49.047 10.431-65.92 27.296l-146.752 146.752c-9.411 8.787-15.277 21.267-15.277 35.117 0 26.51 21.49 48 48 48 13.85 0 26.33-5.866 35.092-15.249l0.026-0.028 142.080-142.080v140.16c0 26.51 21.49 48 48 48v0h64c8.837 0 16 7.163 16 16v0 352z" />
<glyph unicode="&#xe923;" glyph-name="cpu-16" d="M416 912c0 26.51-21.49 48-48 48s-48-21.49-48-48v0-80h-80c-61.856 0-112-50.144-112-112v0-80h-80c-26.51 0-48-21.49-48-48s21.49-48 48-48v0h80v-192h-80c-26.51 0-48-21.49-48-48s21.49-48 48-48v0h80v-80c0-61.824 50.176-112 112-112h80v-80c0-26.51 21.49-48 48-48s48 21.49 48 48v0 80h192v-80c0-26.51 21.49-48 48-48s48 21.49 48 48v0 80h80c61.856 0 112 50.144 112 112v0 80h80c26.51 0 48 21.49 48 48s-21.49 48-48 48v0h-80v192h80c26.51 0 48 21.49 48 48s-21.49 48-48 48v0h-80v80c0 61.856-50.144 112-112 112v0h-80v80c0 26.51-21.49 48-48 48s-48-21.49-48-48v0-80h-192v80zM784 160h-544c-8.837 0-16 7.163-16 16v0 544c0 8.837 7.163 16 16 16v0h544c8.837 0 16-7.163 16-16v0-544c0-8.837-7.163-16-16-16v0zM368 640c-26.51 0-48-21.49-48-48v0-288c0-26.496 21.504-48 48-48h288c26.51 0 48 21.49 48 48v0 288c0 26.51-21.49 48-48 48v0h-288zM416 352v192h192v-192h-192z" />
<glyph unicode="&#xe924;" glyph-name="credit-card-16" d="M688 384c-26.51 0-48-21.49-48-48s21.49-48 48-48v0h96c26.51 0 48 21.49 48 48s-21.49 48-48 48v0h-96zM0 720c0 61.824 50.176 112 112 112h800c61.824 0 112-50.176 112-112v-544c0-61.856-50.144-112-112-112v0h-800c-61.856 0-112 50.144-112 112v0 544zM928 720v0c0 8.837-7.163 16-16 16h-800c-8.837 0-16-7.163-16-16v-80h832v80zM928 544h-832v-368c0-8.832 7.168-16 16-16h800c8.837 0 16 7.163 16 16v0 368z" />
<glyph unicode="&#xe925;" glyph-name="cross-reference-16" d="M1024 880v-265.344c0-0.009 0-0.019 0-0.029 0-8.837-7.163-16-16-16-4.425 0-8.431 1.797-11.328 4.7v0l-98.752 98.752-240-240c-8.787-9.411-21.267-15.277-35.117-15.277-26.51 0-48 21.49-48 48 0 13.85 5.866 26.33 15.249 35.092l0.028 0.026 240 240-98.752 98.752c-2.904 2.897-4.701 6.903-4.701 11.328 0 8.837 7.163 16 16 16 0.010 0 0.020 0 0.030 0h265.342c8.837 0 16-7.163 16-16v0zM176 736c-8.837 0-16-7.163-16-16v0-480c0-8.832 7.168-16 16-16h128c26.51 0 48-21.49 48-48v0-140.16l174.080 174.080c8.679 8.689 20.67 14.068 33.918 14.080h288.002c8.837 0 16 7.163 16 16v0 160c0 26.51 21.49 48 48 48s48-21.49 48-48v0-160c0-61.856-50.144-112-112-112v0h-268.16l-164.672-164.672c-16.873-16.865-40.178-27.295-65.92-27.295-51.488 0-93.229 41.73-93.248 93.214v98.754h-80c-61.856 0-112 50.144-112 112v0 480c0 61.824 50.176 112 112 112h352c26.51 0 48-21.49 48-48s-21.49-48-48-48v0h-352z" />
<glyph unicode="&#xe926;" glyph-name="dash-16" d="M128 448c0 26.51 21.49 48 48 48v0h672c26.51 0 48-21.49 48-48s-21.49-48-48-48v0h-672c-26.51 0-48 21.49-48 48v0z" />
<glyph unicode="&#xe927;" glyph-name="database-16" d="M160 736c0-8.512 3.712-20.352 18.048-35.264 14.528-15.168 37.824-30.912 70.464-45.248 64.96-28.608 158.080-47.488 263.488-47.488 105.344 0 198.464 18.88 263.552 47.488 32.512 14.336 55.872 30.144 70.4 45.312 14.336 14.848 18.048 26.688 18.048 35.2s-3.712 20.352-18.048 35.264c-14.528 15.168-37.824 30.912-70.464 45.248-64.96 28.608-158.080 47.488-263.488 47.488-105.344 0-198.464-18.88-263.552-47.488-32.512-14.336-55.872-30.144-70.4-45.312-14.336-14.848-18.048-26.688-18.048-35.2zM64 736c0 40.064 18.688 74.56 44.8 101.76 25.984 27.008 61.184 49.088 101.056 66.624 79.744 35.136 186.624 55.616 302.144 55.616s222.4-20.48 302.208-55.616c39.808-17.536 75.008-39.68 100.992-66.56 26.112-27.264 44.8-61.76 44.8-101.824v-576c0-40.064-18.688-74.56-44.8-101.76-25.984-27.008-61.184-49.088-101.056-66.624-79.68-35.136-186.56-55.616-302.144-55.616-115.52 0-222.4 20.48-302.144 55.616-39.872 17.536-75.072 39.68-101.056 66.56-26.112 27.264-44.8 61.76-44.8 101.824v576zM160 448c0-8.512 3.712-20.352 18.048-35.264 14.528-15.168 37.824-30.912 70.464-45.248 64.96-28.608 158.080-47.488 263.488-47.488 105.344 0 198.464 18.88 263.552 47.488 32.512 14.336 55.872 30.144 70.4 45.312 14.336 14.848 18.048 26.688 18.048 35.2v145.664c-15.424-9.6-32.192-18.304-49.792-26.048-79.808-35.136-186.688-55.616-302.208-55.616s-222.4 20.48-302.144 55.616c-17.664 7.744-34.432 16.448-49.856 26.048v-145.664zM160 305.6v-145.6c0-8.512 3.712-20.352 18.048-35.2 14.528-15.168 37.888-30.976 70.4-45.312 65.024-28.608 158.144-47.488 263.552-47.488s198.528 18.88 263.488 47.488c32.64 14.336 55.936 30.080 70.464 45.248 14.336 14.912 18.048 26.752 18.048 35.264v145.6c-15.424-9.6-32.192-18.24-49.792-25.984-79.808-35.136-186.688-55.616-302.208-55.616s-222.4 20.48-302.144 55.616c-19.537 8.542-35.904 17.227-51.547 26.965l1.691-0.981z" />
<glyph unicode="&#xe928;" glyph-name="desktop-download-16" d="M560 640v272c0 26.51-21.49 48-48 48s-48-21.49-48-48v0-272h-137.344c-0.009 0-0.019 0-0.029 0-8.837 0-16-7.163-16-16 0-4.425 1.797-8.431 4.7-11.328v0l185.344-185.344c2.897-2.904 6.903-4.701 11.328-4.701s8.431 1.797 11.328 4.7v0l185.344 185.344c2.904 2.897 4.701 6.903 4.701 11.328 0 8.837-7.163 16-16 16-0.010 0-0.020 0-0.030 0h-137.342zM96 784c0 8.837 7.163 16 16 16v0h192c26.51 0 48 21.49 48 48s-21.49 48-48 48v0h-192c-61.856 0-112-50.144-112-112v0-480c0-61.824 50.176-112 112-112h238.528c-6.4-66.624-33.28-119.808-82.688-176.448-7.346-8.388-11.827-19.447-11.827-31.552 0-26.505 21.483-47.993 47.986-48h416.001c26.504 0.007 47.987 21.495 47.987 48 0 12.105-4.481 23.164-11.875 31.607l0.048-0.055c-49.408 56.64-76.352 109.824-82.688 176.448h238.528c61.856 0 112 50.144 112 112v0 480c0 61.856-50.144 112-112 112v0h-192c-26.51 0-48-21.49-48-48s21.49-48 48-48v0h192c8.837 0 16-7.163 16-16v0-480c0-8.837-7.163-16-16-16v0h-800c-8.837 0-16 7.163-16 16v0 480zM577.152 192h-130.304c-4.063-59.473-21.732-114.055-49.891-161.702l0.931 1.702h228.224c-27.228 45.944-44.897 100.526-48.898 158.865l-0.062 1.135z" />
<glyph unicode="&#xe929;" glyph-name="device-camera-16" d="M960 768h-512c0 35.2-28.8 64-64 64h-256c-35.2 0-64-28.8-64-64-35.2 0-64-28.8-64-64v-576c0-35.2 28.8-64 64-64h896c35.2 0 64 28.8 64 64v576c0 35.2-28.8 64-64 64zM384 640h-256v64h256v-64zM672 192c-124.16 0-224 99.84-224 224s99.84 224 224 224 224-99.84 224-224-99.84-224-224-224zM832 416c0-88.32-72.32-160-160-160s-160 72.32-160 160 72.32 160 160 160 160-72.32 160-160z" />
<glyph unicode="&#xe92a;" glyph-name="device-camera-video-16" d="M1024 720v-544c-0.002-26.508-21.491-47.997-48-47.997-9.124 0-17.653 2.546-24.704 6.845l-247.296 148.352v-43.2c0-61.856-50.144-112-112-112h-480c-61.824 0-112 50.176-112 112v416c0 61.856 50.144 112 112 112h480c61.856 0 112-50.144 112-112v-43.2l247.084 148.232c7.263 4.42 15.792 6.965 24.916 6.965 26.509 0 47.998-21.489 48-47.997zM704 395.2l224-134.4v374.4l-224-134.4v-105.6zM608 528v128c0 8.837-7.163 16-16 16v0h-480c-8.837 0-16-7.163-16-16v0-416c0-8.832 7.168-16 16-16h480c8.837 0 16 7.163 16 16v0 288z" />
<glyph unicode="&#xe92b;" glyph-name="device-desktop-16" d="M112 800h800c8.837 0 16-7.163 16-16v0-480c0-8.837-7.163-16-16-16v0h-800c-8.837 0-16 7.163-16 16v0 480c0 8.837 7.163 16 16 16v0zM912 896h-800c-61.856 0-112-50.144-112-112v0-480c0-61.824 50.176-112 112-112h238.528c-6.4-66.624-33.28-119.808-82.688-176.448-7.346-8.388-11.827-19.447-11.827-31.552 0-26.505 21.483-47.993 47.986-48h416.001c26.504 0.007 47.987 21.495 47.987 48 0 12.105-4.481 23.164-11.875 31.607l0.048-0.055c-49.408 56.64-76.352 109.824-82.688 176.448h238.528c61.856 0 112 50.144 112 112v0 480c0 61.856-50.144 112-112 112v0zM577.152 192h-130.304c-4.063-59.473-21.732-114.055-49.891-161.702l0.931 1.702h228.224c-27.228 45.944-44.897 100.526-48.898 158.865l-0.062 1.135z" />
<glyph unicode="&#xe92c;" glyph-name="device-mobile-16" d="M240 960c-61.856 0-112-50.144-112-112v0-800c0-61.824 50.176-112 112-112h544c61.856 0 112 50.144 112 112v0 800c0 61.856-50.144 112-112 112v0h-544zM224 848c0 8.837 7.163 16 16 16v0h544c8.837 0 16-7.163 16-16v0-800c0-8.837-7.163-16-16-16v0h-544c-8.837 0-16 7.163-16 16v0 800zM512 128c35.346 0 64 28.654 64 64s-28.654 64-64 64v0c-35.346 0-64-28.654-64-64s28.654-64 64-64v0z" />
<glyph unicode="&#xe92d;" glyph-name="diff-16" d="M560 848c0 26.51-21.49 48-48 48s-48-21.49-48-48v0-208h-208c-26.51 0-48-21.49-48-48s21.49-48 48-48v0h208v-208c0-26.51 21.49-48 48-48s48 21.49 48 48v0 208h208c26.51 0 48 21.49 48 48s-21.49 48-48 48v0h-208v208zM256 128c-26.51 0-48-21.49-48-48s21.49-48 48-48v0h512c26.51 0 48 21.49 48 48s-21.49 48-48 48v0h-512z" />
<glyph unicode="&#xe92e;" glyph-name="diff-added-16" d="M848 800h-672c-8.837 0-16-7.163-16-16v0-672c0-8.832 7.168-16 16-16h672c8.837 0 16 7.163 16 16v0 672c0 8.837-7.163 16-16 16v0zM176 896h672c61.824 0 112-50.176 112-112v-672c0-61.856-50.144-112-112-112v0h-672c-61.856 0-112 50.144-112 112v0 672c0 61.824 50.176 112 112 112zM512 704c26.51 0 48-21.49 48-48v0-160h160c26.51 0 48-21.49 48-48s-21.49-48-48-48v0h-160v-160c0-26.51-21.49-48-48-48s-48 21.49-48 48v0 160h-160c-26.51 0-48 21.49-48 48s21.49 48 48 48v0h160v160c0 26.51 21.49 48 48 48v0z" />
<glyph unicode="&#xe92f;" glyph-name="diff-ignored-16" d="M176 800h672c8.837 0 16-7.163 16-16v0-672c0-8.837-7.163-16-16-16v0h-672c-8.837 0-16 7.163-16 16v0 672c0 8.837 7.163 16 16 16v0zM848 896h-672c-61.856 0-112-50.144-112-112v0-672c0-61.824 50.176-112 112-112h672c61.856 0 112 50.144 112 112v0 672c0 61.856-50.144 112-112 112v0zM721.92 590.080c7.982 8.549 12.883 20.063 12.883 32.723 0 26.51-21.49 48-48 48-12.659 0-24.174-4.901-32.751-12.908l0.028 0.026-352-352c-9.411-8.787-15.277-21.267-15.277-35.117 0-26.51 21.49-48 48-48 13.85 0 26.33 5.866 35.092 15.249l0.026 0.028 352 352z" />
<glyph unicode="&#xe930;" glyph-name="diff-modified-16" d="M176 800h672c8.837 0 16-7.163 16-16v0-672c0-8.837-7.163-16-16-16v0h-672c-8.837 0-16 7.163-16 16v0 672c0 8.837 7.163 16 16 16v0zM848 896h-672c-61.856 0-112-50.144-112-112v0-672c0-61.824 50.176-112 112-112h672c61.856 0 112 50.144 112 112v0 672c0 61.856-50.144 112-112 112v0zM512 320c70.692 0 128 57.308 128 128s-57.308 128-128 128v0c-70.692 0-128-57.308-128-128s57.308-128 128-128v0z" />
<glyph unicode="&#xe931;" glyph-name="diff-removed-16" d="M176 800h672c8.837 0 16-7.163 16-16v0-672c0-8.837-7.163-16-16-16v0h-672c-8.837 0-16 7.163-16 16v0 672c0 8.837 7.163 16 16 16v0zM848 896h-672c-61.856 0-112-50.144-112-112v0-672c0-61.824 50.176-112 112-112h672c61.856 0 112 50.144 112 112v0 672c0 61.856-50.144 112-112 112v0zM720 400c26.51 0 48 21.49 48 48s-21.49 48-48 48v0h-416c-26.51 0-48-21.49-48-48s21.49-48 48-48v0h416z" />
<glyph unicode="&#xe932;" glyph-name="diff-renamed-16" d="M176 800h672c8.837 0 16-7.163 16-16v0-672c0-8.837-7.163-16-16-16v0h-672c-8.837 0-16 7.163-16 16v0 672c0 8.837 7.163 16 16 16v0zM848 896h-672c-61.856 0-112-50.144-112-112v0-672c0-61.824 50.176-112 112-112h672c61.856 0 112 50.144 112 112v0 672c0 61.856-50.144 112-112 112v0zM753.92 414.080c8.674 8.684 14.038 20.676 14.038 33.92s-5.364 25.236-14.038 33.921l-207.999 207.999c-8.549 7.982-20.063 12.883-32.723 12.883-26.51 0-48-21.49-48-48 0-12.659 4.901-24.174 12.908-32.751l-0.026 0.028 126.080-126.080h-300.16c-26.51 0-48-21.49-48-48s21.49-48 48-48h300.16l-126.080-126.080c-9.411-8.787-15.277-21.267-15.277-35.117 0-26.51 21.49-48 48-48 13.85 0 26.33 5.866 35.092 15.249l0.026 0.028 208 208z" />
<glyph unicode="&#xe933;" glyph-name="dot-16" d="M512 608c-88.366 0-160-71.634-160-160s71.634-160 160-160v0c88.366 0 160 71.634 160 160s-71.634 160-160 160v0zM256 448c0 141.385 114.615 256 256 256s256-114.615 256-256v0c0-141.385-114.615-256-256-256s-256 114.615-256 256v0z" />
<glyph unicode="&#xe934;" glyph-name="dot-fill-16" d="M512 704c-141.385 0-256-114.615-256-256s114.615-256 256-256v0c141.385 0 256 114.615 256 256s-114.615 256-256 256v0z" />
<glyph unicode="&#xe935;" glyph-name="download-16" d="M478.080 270.080c8.684-8.674 20.676-14.038 33.92-14.038s25.236 5.364 33.921 14.038l239.999 239.999c7.982 8.549 12.883 20.063 12.883 32.723 0 26.51-21.49 48-48 48-12.659 0-24.174-4.901-32.751-12.908l0.028 0.026-158.080-158.080v428.16c0 26.51-21.49 48-48 48s-48-21.49-48-48v0-428.16l-158.080 158.080c-8.549 7.982-20.063 12.883-32.723 12.883-26.51 0-48-21.49-48-48 0-12.659 4.901-24.174 12.908-32.751l-0.026 0.028 240-240zM240 128c-26.51 0-48-21.49-48-48s21.49-48 48-48v0h544c26.51 0 48 21.49 48 48s-21.49 48-48 48v0h-544z" />
<glyph unicode="&#xe936;" glyph-name="ellipsis-16" d="M0 592c0 61.824 50.176 112 112 112h800c61.824 0 112-50.176 112-112v-288c0-61.856-50.144-112-112-112v0h-800c-61.856 0-112 50.144-112 112v0 288zM256 512c-35.346 0-64-28.654-64-64s28.654-64 64-64v0c35.346 0 64 28.654 64 64s-28.654 64-64 64v0zM448 448c0 35.346 28.654 64 64 64s64-28.654 64-64v0c0-35.346-28.654-64-64-64s-64 28.654-64 64v0zM768 512c-35.346 0-64-28.654-64-64s28.654-64 64-64v0c35.346 0 64 28.654 64 64s-28.654 64-64 64v0z" />
<glyph unicode="&#xe937;" glyph-name="eye-16" d="M107.456 452.352c26.368 39.744 79.488 112 151.424 173.888 72.32 62.272 158.848 109.76 253.12 109.76s180.736-47.488 253.12-109.76c71.936-61.888 125.056-134.144 151.424-173.888 0.855-1.214 1.366-2.723 1.366-4.352s-0.511-3.138-1.382-4.376l0.016 0.024c-26.368-39.744-79.488-112-151.424-173.888-72.32-62.272-158.848-109.76-253.12-109.76s-180.736 47.488-253.12 109.76c-72 61.888-125.12 134.080-151.424 173.888-0.855 1.214-1.366 2.723-1.366 4.352s0.511 3.138 1.382 4.376l-0.016-0.024zM512 832c-126.784 0-234.88-63.488-315.712-132.992-81.28-69.824-139.968-150.080-168.768-193.408-10.926-16.164-17.442-36.089-17.442-57.536s6.516-41.372 17.676-57.903l-0.234 0.367c28.8-43.392 87.488-123.648 168.768-193.536 80.768-69.504 188.928-132.992 315.712-132.992s234.88 63.488 315.712 132.992c81.28 69.824 139.968 150.080 168.768 193.472 10.926 16.164 17.442 36.089 17.442 57.536s-6.516 41.372-17.676 57.903l0.234-0.367c-28.8 43.392-87.488 123.648-168.768 193.472-80.768 69.504-188.928 132.992-315.712 132.992zM512 320c70.692 0 128 57.308 128 128s-57.308 128-128 128v0c-70.692 0-128-57.308-128-128s57.308-128 128-128v0z" />
<glyph unicode="&#xe938;" glyph-name="eye-closed-16" d="M9.152 812.16c8.827 12.065 22.935 19.813 38.852 19.813 10.579 0 20.358-3.422 28.292-9.22l-0.136 0.095 928-672c12.714-8.763 20.94-23.244 20.94-39.646 0-26.51-21.49-48-48-48-11.063 0-21.253 3.743-29.37 10.032l0.11-0.082-143.872 104.192c-77.824-61.504-177.28-113.344-291.968-113.344-126.784 0-234.88 63.488-315.712 132.992-81.28 69.76-139.968 150.080-168.768 193.408-10.921 16.155-17.434 36.069-17.434 57.504s6.513 41.349 17.668 57.871l-0.234-0.367c22.592 34.112 63.68 90.88 119.552 147.52l-127.232 92.224c-12.065 8.827-19.813 22.935-19.813 38.852 0 10.579 3.422 20.358 9.22 28.292l-0.095-0.136zM225.856 595.968c-43.331-42.781-82.309-89.768-116.338-140.362l-2.062-3.254c-0.866-1.212-1.39-2.719-1.408-4.348v-0.004c0-1.344 0.384-2.88 1.408-4.352 26.368-39.744 79.488-112 151.424-173.888 72.32-62.272 158.848-109.76 253.12-109.76 76.48 0 147.84 31.232 210.56 76.224l-142.528 103.296c-19.309-12.303-42.843-19.609-68.083-19.609-70.692 0-128 57.308-128 128 0 10.94 1.372 21.559 3.954 31.694l-0.191-0.886-161.92 117.248zM512 736c-33.024 0-65.088-5.76-95.936-16.064-4.835-1.795-10.42-2.834-16.248-2.834-26.51 0-48 21.49-48 48 0 21.506 14.144 39.709 33.636 45.814l0.34 0.092c37.619 13.148 80.989 20.82 126.128 20.992h0.080c126.784 0 234.88-63.488 315.712-132.992 81.28-69.824 139.968-150.080 168.768-193.472 10.926-16.164 17.442-36.089 17.442-57.536s-6.516-41.372-17.676-57.903l0.234 0.367c-7.040-10.624-15.872-23.36-26.24-37.568-8.837-11.957-22.883-19.625-38.72-19.625-26.515 0-48.009 21.494-48.009 48.009 0 10.678 3.486 20.541 9.382 28.515l-0.092-0.131c9.472 12.864 17.408 24.448 23.744 33.92 0.868 1.221 1.388 2.742 1.388 4.384s-0.52 3.163-1.404 4.407l0.016-0.023c-26.368 39.744-79.488 112-151.424 173.888-72.32 62.272-158.848 109.76-253.12 109.76z" />
<glyph unicode="&#xe939;" glyph-name="file-16" d="M240 864c-8.837 0-16-7.163-16-16v0-736c0-8.832 7.168-16 16-16h544c8.837 0 16 7.163 16 16v0 464h-176c-61.856 0-112 50.144-112 112v0 176h-272zM608 828.16v-140.16c0-8.832 7.168-16 16-16h140.16l-156.16 156.16zM128 848c0 61.824 50.176 112 112 112h325.504c29.696 0 58.176-11.776 79.168-32.832l218.496-218.496c21.056-20.992 32.832-49.472 32.832-79.168v-517.504c0-61.856-50.144-112-112-112v0h-544c-61.856 0-112 50.144-112 112v0 736z" />
<glyph unicode="&#xe93a;" glyph-name="file-binary-16" d="M256 848c0 61.824 50.176 112 112 112h357.504c29.696 0 58.176-11.776 79.168-32.832l186.496-186.496c21.056-20.992 32.832-49.472 32.832-79.168v-549.504c0-61.856-50.144-112-112-112v0h-576c-26.51 0-48 21.49-48 48s21.49 48 48 48v0h576c8.837 0 16 7.163 16 16v0 464h-176c-61.856 0-112 50.144-112 112v0 176h-272c-8.837 0-16-7.163-16-16v0-128c0-26.51-21.49-48-48-48s-48 21.49-48 48v0 128zM736 860.032v-172.032c0-8.832 7.168-16 16-16h172.032c-0.247 0.311-0.477 0.582-0.716 0.845l0.012-0.013-186.496 186.496c-0.248 0.225-0.519 0.455-0.797 0.677l-0.035 0.027zM0 464c0 61.824 50.176 112 112 112h96c61.824 0 112-50.176 112-112v-160c0-61.856-50.144-112-112-112v0h-96c-61.856 0-112 50.144-112 112v0 160zM112 480c-8.837 0-16-7.163-16-16v0-160c0-8.832 7.168-16 16-16h96c8.837 0 16 7.163 16 16v0 160c0 8.837-7.163 16-16 16v0h-96zM432 576c-26.51 0-48-21.49-48-48s21.49-48 48-48v0h48v-192h-48c-26.51 0-48-21.49-48-48s21.49-48 48-48v0h192c26.51 0 48 21.49 48 48s-21.49 48-48 48v0h-48v240c0 26.51-21.49 48-48 48v0h-96z" />
<glyph unicode="&#xe93b;" glyph-name="file-code-16" d="M256 848c0 61.824 50.176 112 112 112h357.504c29.696 0 58.176-11.776 79.168-32.832l186.496-186.496c21.056-20.992 32.832-49.472 32.832-79.168v-549.504c0-61.856-50.144-112-112-112v0h-576c-26.51 0-48 21.49-48 48s21.49 48 48 48v0h576c8.837 0 16 7.163 16 16v0 464h-176c-61.856 0-112 50.144-112 112v0 176h-272c-8.837 0-16-7.163-16-16v0-160c0-26.51-21.49-48-48-48s-48 21.49-48 48v0 160zM736 860.032v-172.032c0-8.832 7.168-16 16-16h172.032c-0.247 0.311-0.477 0.582-0.716 0.845l0.012-0.013-186.496 186.496c-0.248 0.225-0.519 0.455-0.797 0.677l-0.035 0.027zM366.080 529.92c-8.674-8.684-14.038-20.676-14.038-33.92s5.364-25.236 14.038-33.921l94.079-94.079-94.080-94.080c-9.411-8.787-15.277-21.267-15.277-35.117 0-26.51 21.49-48 48-48 13.85 0 26.33 5.866 35.092 15.249l0.026 0.028 128 128c8.674 8.684 14.038 20.676 14.038 33.92s-5.364 25.236-14.038 33.921l-127.999 127.999c-8.684 8.674-20.676 14.038-33.92 14.038s-25.236-5.364-33.921-14.038l0.001 0.001zM209.92 462.080c7.982 8.549 12.883 20.063 12.883 32.723 0 26.51-21.49 48-48 48-12.659 0-24.174-4.901-32.751-12.908l0.028 0.026-128-128c-8.674-8.684-14.038-20.676-14.038-33.92s5.364-25.236 14.038-33.921l127.999-127.999c8.549-7.982 20.063-12.883 32.723-12.883 26.51 0 48 21.49 48 48 0 12.659-4.901 24.174-12.908 32.751l0.026-0.028-94.080 94.080 94.080 94.080z" />
<glyph unicode="&#xe93c;" glyph-name="file-diff-16" d="M176 864c-8.837 0-16-7.163-16-16v0-800c0-8.832 7.168-16 16-16h672c8.837 0 16 7.163 16 16v0 613.504c0 0.008 0 0.019 0 0.029 0 4.411-1.785 8.405-4.672 11.3v0l-186.496 186.496c-2.894 2.887-6.888 4.672-11.299 4.672-0.010 0-0.020 0-0.030 0h-485.502zM64 848c0 61.824 50.176 112 112 112h485.504c29.696 0 58.176-11.776 79.168-32.832l186.496-186.496c21.056-20.992 32.832-49.472 32.832-79.168v-613.504c0-61.856-50.144-112-112-112v0h-672c-61.856 0-112 50.144-112 112v0 800zM512 752c26.51 0 48-21.49 48-48v0-96h96c26.51 0 48-21.49 48-48s-21.49-48-48-48v0h-96v-96c0-26.51-21.49-48-48-48s-48 21.49-48 48v0 96h-96c-26.51 0-48 21.49-48 48s21.49 48 48 48v0h96v96c0 26.51 21.49 48 48 48v0zM320 240c0 26.51 21.49 48 48 48v0h288c26.51 0 48-21.49 48-48s-21.49-48-48-48v0h-288c-26.51 0-48 21.49-48 48v0z" />
<glyph unicode="&#xe93d;" glyph-name="file-directory-16" d="M112 896c-61.856 0-112-50.144-112-112v0-672c0-61.824 50.176-112 112-112h800c61.856 0 112 50.144 112 112v0 544c0 61.856-50.144 112-112 112v0h-416c-5.217 0-9.85 2.496-12.771 6.36l-0.029 0.040-57.6 76.8c-21.12 28.16-54.4 44.8-89.6 44.8h-224z" />
<glyph unicode="&#xe93e;" glyph-name="file-submodule-16" d="M0 784c0 61.824 50.176 112 112 112h208c35.2 0 68.48-16.64 89.6-44.8l57.6-76.8c2.95-3.904 7.583-6.4 12.8-6.4h432c61.824 0 112-50.176 112-112v-544c0-61.856-50.144-112-112-112v0h-800c-61.856 0-112 50.144-112 112v0 672zM602.88 184.96l184.512 171.328c3.141 2.929 5.099 7.092 5.099 11.712s-1.958 8.783-5.090 11.703l-0.009 0.009-184.512 171.328c-2.846 2.645-6.673 4.269-10.88 4.269-8.83 0-15.989-7.152-16-15.98v-123.329h-272c-26.51 0-48-21.49-48-48s21.49-48 48-48v0h272v-123.328c0-13.952 16.64-21.184 26.88-11.712z" />
<glyph unicode="&#xe93f;" glyph-name="file-symlink-file-16" d="M128 848c0 61.824 50.176 112 112 112h357.504c29.696 0 58.176-11.776 79.168-32.832l186.496-186.496c21.056-20.992 32.832-49.472 32.832-79.168v-549.504c0-61.856-50.144-112-112-112v0h-448c-26.51 0-48 21.49-48 48s21.49 48 48 48v0h448c8.837 0 16 7.163 16 16v0 464h-176c-61.856 0-112 50.144-112 112v0 176h-272c-8.837 0-16-7.163-16-16v0-176c0-26.51-21.49-48-48-48s-48 21.49-48 48v0 176zM608 860.032v-172.032c0-8.832 7.168-16 16-16h172.032c-0.247 0.311-0.477 0.582-0.716 0.845l0.012-0.013-186.496 186.496c-0.25 0.227-0.521 0.458-0.799 0.679l-0.033 0.025zM96 176.832c0 0.001 0 0.001 0 0.002 0 79.529 64.471 144 144 144 0.27 0 0.54-0.001 0.81-0.002h-0.042l15.232-0.192v-124.032c0-13.952 16.64-21.184 26.88-11.712l184.512 171.328c3.141 2.929 5.099 7.092 5.099 11.712s-1.958 8.783-5.090 11.703l-0.009 0.009-184.512 171.392c-2.846 2.645-6.673 4.269-10.88 4.269-8.83 0-15.989-7.152-16-15.98v-122.689l-14.72 0.064c-0.38 0.002-0.83 0.003-1.28 0.003-132.527 0-239.965-107.417-240-239.936v-64.771c0-26.51 21.49-48 48-48s48 21.49 48 48v0 64.832z" />
<glyph unicode="&#xe940;" glyph-name="file-zip-16" d="M224 848c0 8.837 7.163 16 16 16v0h192c-26.51 0-48-21.49-48-48s21.49-48 48-48v0h32c26.51 0 48 21.49 48 48s-21.49 48-48 48v0h133.504c0.008 0 0.019 0 0.029 0 4.411 0 8.405-1.785 11.3-4.672v0l186.496-186.496c2.887-2.894 4.672-6.888 4.672-11.299 0-0.010 0-0.020 0-0.030v0.002-549.504c0-8.837-7.163-16-16-16v0h-32c-26.51 0-48-21.49-48-48s21.49-48 48-48v0h32c61.856 0 112 50.144 112 112v0 549.504c0 29.696-11.776 58.176-32.832 79.168l-186.496 186.496c-20.258 20.272-48.247 32.816-79.165 32.832h-357.507c-61.856 0-112-50.144-112-112v0-736c0-41.536 22.592-77.696 55.936-96.96 6.9-4.066 15.202-6.467 24.064-6.467 26.511 0 48.003 21.492 48.003 48.003 0 17.649-9.525 33.073-23.714 41.414l-0.225 0.122c-4.851 2.809-8.062 7.973-8.064 13.888v0 736zM560 768c-26.51 0-48-21.49-48-48s21.49-48 48-48v0h32c26.51 0 48 21.49 48 48s-21.49 48-48 48v0h-32zM384 624c0 26.51 21.49 48 48 48v0h32c26.51 0 48-21.49 48-48s-21.49-48-48-48v0h-32c-26.51 0-48 21.49-48 48v0zM512 528c0 26.51 21.49 48 48 48v0h32c26.51 0 48-21.49 48-48s-21.49-48-48-48v0h-32c-26.51 0-48 21.49-48 48v0zM432 480c-26.51 0-48-21.49-48-48s21.49-48 48-48v0h32c26.51 0 48 21.49 48 48s-21.49 48-48 48v0h-32zM512 336c0 26.51 21.49 48 48 48v0h32c26.51 0 48-21.49 48-48s-21.49-48-48-48v0h-32c-26.51 0-48 21.49-48 48v0zM464 288c-61.856 0-112-50.144-112-112v0-192c0-26.496 21.504-48 48-48h160c26.51 0 48 21.49 48 48v0 192c0 61.856-50.144 112-112 112v0h-32zM448 176c0 8.837 7.163 16 16 16v0h32c8.837 0 16-7.163 16-16v0-144h-64v144z" />
<glyph unicode="&#xe941;" glyph-name="filter-16" d="M48 768c-26.51 0-48-21.49-48-48s21.49-48 48-48v0h928c26.51 0 48 21.49 48 48s-21.49 48-48 48v0h-928zM192 464c0 26.51 21.49 48 48 48v0h544c26.51 0 48-21.49 48-48s-21.49-48-48-48v0h-544c-26.51 0-48 21.49-48 48v0zM384 208c0 26.51 21.49 48 48 48v0h160c26.51 0 48-21.49 48-48s-21.49-48-48-48v0h-160c-26.51 0-48 21.49-48 48v0z" />
<glyph unicode="&#xe942;" glyph-name="flame-16" d="M511.872 32c-181.376 0-319.872 126.080-319.872 288v-0.024c0 0.157-0.001 0.314-0.001 0.47 0 27.022 5.217 52.825 14.208 75.074l0.175-0.204c23.484-26.791 54.859-46.49 91.729-55.732 54.912-13.248 114.752 1.472 153.792 40.512 60.672 60.672 48.064 146.24 17.792 206.848-36.8 73.6-24.704 130.176 2.944 174.72 14.976 23.936 34.688 44.608 55.296 60.992 34.176-137.216 116.544-219.264 181.376-283.776l2.304-2.368c76.736-76.352 120.256-122.88 120.256-216.512 0-161.28-138.752-288-320-288zM610.112 911.808c-2.368 26.432-23.872 47.616-48.832 38.848-111.040-38.656-283.52-194.624-177.472-406.656 22.016-44.096 18.24-77.952 0.192-96-26.816-26.816-98.56-31.168-130.56 53.248-11.072 29.056-42.176 48.768-66.24 29.056-56.896-46.464-91.2-127.232-91.2-210.304 0-224.768 191.872-384 415.872-384s416 160 416 384c0 136.768-72.192 208.64-147.968 284.032-76.16 75.776-155.904 155.2-169.792 307.84z" />
<glyph unicode="&#xe943;" glyph-name="fold-16" d="M697.344 832h-137.344v80c0 26.51-21.49 48-48 48s-48-21.49-48-48v0-80h-137.344c-0.009 0-0.019 0-0.029 0-8.837 0-16-7.163-16-16 0-4.425 1.797-8.431 4.7-11.328v0l185.344-185.344c2.897-2.904 6.903-4.701 11.328-4.701s8.431 1.797 11.328 4.7v0l185.344 185.344c2.904 2.897 4.701 6.903 4.701 11.328 0 8.837-7.163 16-16 16-0.010 0-0.020 0-0.030 0h0.002zM560-16c0-26.51-21.49-48-48-48s-48 21.49-48 48v0 80h-137.344c-0.009 0-0.019 0-0.029 0-8.837 0-16 7.163-16 16 0 4.425 1.797 8.431 4.7 11.328v0l185.344 185.344c2.897 2.904 6.903 4.701 11.328 4.701s8.431-1.797 11.328-4.7v0l185.344-185.344c2.904-2.897 4.701-6.903 4.701-11.328 0-8.837-7.163-16-16-16-0.010 0-0.020 0-0.030 0h-137.342v-80zM144 400c26.51 0 48 21.49 48 48s-21.49 48-48 48v0h-32c-26.51 0-48-21.49-48-48s21.49-48 48-48v0h32zM384 448c0-26.51-21.49-48-48-48v0h-32c-26.51 0-48 21.49-48 48s21.49 48 48 48v0h32c26.51 0 48-21.49 48-48v0zM528 400c26.51 0 48 21.49 48 48s-21.49 48-48 48v0h-32c-26.51 0-48-21.49-48-48s21.49-48 48-48v0h32zM768 448c0-26.51-21.49-48-48-48v0h-32c-26.51 0-48 21.49-48 48s21.49 48 48 48v0h32c26.51 0 48-21.49 48-48v0zM912 400c26.51 0 48 21.49 48 48s-21.49 48-48 48v0h-32c-26.51 0-48-21.49-48-48s21.49-48 48-48v0h32z" />
<glyph unicode="&#xe944;" glyph-name="fold-down-16" d="M523.328 43.328l185.344 185.344c2.904 2.897 4.701 6.903 4.701 11.328 0 8.837-7.163 16-16 16-0.010 0-0.020 0-0.030 0h-137.342v207.104c0 26.51-21.49 48-48 48s-48-21.49-48-48v0-207.104h-137.344c-0.009 0-0.019 0-0.029 0-8.837 0-16-7.163-16-16 0-4.425 1.797-8.431 4.7-11.328v0l185.344-185.344c2.897-2.904 6.903-4.701 11.328-4.701s8.431 1.797 11.328 4.7v0zM144 640c26.51 0 48 21.49 48 48s-21.49 48-48 48v0h-32c-26.51 0-48-21.49-48-48s21.49-48 48-48v0h32zM384 688c0-26.51-21.49-48-48-48v0h-32c-26.51 0-48 21.49-48 48s21.49 48 48 48v0h32c26.51 0 48-21.49 48-48v0zM528 640c26.51 0 48 21.49 48 48s-21.49 48-48 48v0h-32c-26.51 0-48-21.49-48-48s21.49-48 48-48v0h32zM768 688c0-26.51-21.49-48-48-48v0h-32c-26.51 0-48 21.49-48 48s21.49 48 48 48v0h32c26.51 0 48-21.49 48-48v0zM912 640c26.51 0 48 21.49 48 48s-21.49 48-48 48v0h-32c-26.51 0-48-21.49-48-48s21.49-48 48-48v0h32z" />
<glyph unicode="&#xe945;" glyph-name="fold-up-16" d="M500.672 852.672l-185.344-185.344c-2.904-2.897-4.701-6.903-4.701-11.328 0-8.837 7.163-16 16-16 0.010 0 0.020 0 0.030 0h137.342v-207.104c0-26.51 21.49-48 48-48s48 21.49 48 48v0 207.104h137.344c0.009 0 0.019 0 0.029 0 8.837 0 16 7.163 16 16 0 4.425-1.797 8.431-4.7 11.328v0l-185.344 185.344c-2.897 2.904-6.903 4.701-11.328 4.701s-8.431-1.797-11.328-4.7v0zM880 256c-26.51 0-48-21.49-48-48s21.49-48 48-48v0h32c26.51 0 48 21.49 48 48s-21.49 48-48 48v0h-32zM640 208c0 26.51 21.49 48 48 48v0h32c26.51 0 48-21.49 48-48s-21.49-48-48-48v0h-32c-26.51 0-48 21.49-48 48v0zM496 256c-26.51 0-48-21.49-48-48s21.49-48 48-48v0h32c26.51 0 48 21.49 48 48s-21.49 48-48 48v0h-32zM256 208c0 26.51 21.49 48 48 48v0h32c26.51 0 48-21.49 48-48s-21.49-48-48-48v0h-32c-26.51 0-48 21.49-48 48v0zM112 256c-26.51 0-48-21.49-48-48s21.49-48 48-48v0h32c26.51 0 48 21.49 48 48s-21.49 48-48 48v0h-32z" />
<glyph unicode="&#xe946;" glyph-name="gear-16" d="M475.456 862.4c10.949 1.010 23.679 1.585 36.544 1.585s25.595-0.576 38.167-1.703l-1.623 0.117c2.304-0.192 6.912-2.304 8.768-9.344l18.496-70.72c9.408-35.84 35.2-61.888 63.808-76.096 11.136-5.504 21.824-11.712 32.064-18.56 26.688-17.792 62.080-27.072 97.92-17.28l70.528 19.392c7.040 1.92 11.2-1.024 12.48-2.944 14.016-19.84 26.24-41.024 36.672-63.296 0.896-1.984 1.408-7.040-3.776-12.16l-52.16-51.584c-26.304-25.984-35.968-61.248-33.92-93.184 0.377-5.569 0.591-12.071 0.591-18.624s-0.215-13.055-0.637-19.5l0.046 0.876c-2.048-31.936 7.616-67.2 33.92-93.184l52.16-51.584c5.12-5.12 4.672-10.176 3.776-12.16-11.452-24.341-23.673-45.118-37.539-64.646l0.867 1.286c-1.28-1.856-5.504-4.736-12.48-2.88l-70.592 19.392c-35.776 9.792-71.168 0.512-97.856-17.28-10.24-6.848-20.928-13.056-32-18.56-28.736-14.208-54.464-40.192-63.872-76.096l-18.496-70.72c-1.856-7.040-6.464-9.152-8.768-9.344-10.948-1.007-23.679-1.581-36.544-1.581s-25.596 0.574-38.168 1.698l1.624-0.117c-2.304 0.192-6.912 2.368-8.768 9.344l-18.496 70.72c-9.408 35.84-35.2 61.888-63.808 76.096-12.543 6.253-23.039 12.423-33.084 19.209l1.020-0.649c-26.688 17.792-62.080 27.072-97.92 17.28l-70.528-19.392c-7.040-1.92-11.2 1.024-12.48 2.944-12.997 18.225-25.218 38.98-35.595 60.782l-1.077 2.514c-0.896 1.984-1.408 7.040 3.776 12.16l52.16 51.584c26.304 25.984 35.968 61.248 33.92 93.184-0.377 5.569-0.591 12.071-0.591 18.624s0.215 13.055 0.637 19.5l-0.046-0.876c2.048 31.936-7.616 67.2-33.92 93.184l-52.16 51.584c-5.12 5.12-4.672 10.176-3.776 12.16 11.427 24.334 23.649 45.112 37.529 64.629l-0.857-1.269c1.28 1.856 5.504 4.8 12.48 2.88l70.592-19.392c35.776-9.792 71.168-0.512 97.856 17.28 10.24 6.848 20.928 13.056 32 18.56 28.736 14.208 54.464 40.192 63.872 76.096l18.496 70.72c1.856 7.040 6.464 9.152 8.768 9.344zM512 960c-15.104 0-30.080-0.64-44.864-1.92-47.552-4.16-82.56-39.36-93.312-80.704l-18.56-70.784c-1.088-4.224-4.992-10.112-13.504-14.336-16.725-8.322-30.72-16.534-44.114-25.57l1.362 0.866c-7.872-5.248-14.912-5.76-19.2-4.544l-70.528 19.328c-41.216 11.328-89.088-1.28-116.48-40.32-15.973-22.424-30.989-47.965-43.733-74.794l-1.323-3.094c-20.16-43.2-7.104-91.008 23.232-121.024l52.16-51.584c3.2-3.072 6.272-9.408 5.632-18.816-0.5-7.387-0.784-16.012-0.784-24.704s0.285-17.317 0.846-25.867l-0.061 1.163c0.64-9.408-2.432-15.744-5.632-18.816l-52.16-51.584c-30.336-30.016-43.392-77.824-23.232-121.024 12.8-27.392 27.904-53.44 45.056-77.952 27.392-38.976 75.264-51.584 116.48-40.32l70.592 19.392c4.224 1.216 11.264 0.704 19.136-4.544 13.632-9.152 27.904-17.408 42.752-24.704 8.512-4.224 12.416-10.112 13.568-14.336l18.496-70.784c10.816-41.344 45.76-76.544 93.312-80.64 13.441-1.24 29.070-1.946 44.864-1.946s31.422 0.707 46.856 2.090l-1.992-0.144c47.552 4.096 82.56 39.296 93.312 80.64l18.56 70.784c1.088 4.224 4.992 10.112 13.504 14.336 16.723 8.318 30.718 16.53 44.11 25.568l-1.358-0.864c7.872 5.248 14.912 5.76 19.2 4.544l70.528-19.328c41.216-11.328 89.088 1.28 116.48 40.32 17.152 24.448 32.32 50.496 45.056 77.888 20.16 43.2 7.104 91.008-23.296 121.024l-52.096 51.584c-3.2 3.072-6.272 9.408-5.632 18.816 0.498 7.387 0.782 16.012 0.782 24.704s-0.284 17.317-0.843 25.868l0.061-1.164c-0.64 9.408 2.496 15.744 5.632 18.816l52.096 51.584c30.4 30.016 43.456 77.824 23.296 121.024-14.071 29.951-29.087 55.513-46.125 79.541l1.069-1.589c-27.392 38.976-75.264 51.584-116.48 40.32l-70.592-19.392c-4.224-1.216-11.264-0.704-19.136 4.544-12.032 8.17-26.027 16.383-40.551 23.699l-2.201 1.005c-8.512 4.224-12.416 10.112-13.568 14.336l-18.432 70.848c-10.88 41.28-45.824 76.48-93.376 80.576-13.424 1.25-29.049 1.97-44.84 1.984h-0.024zM608 448v0c0 53.019-42.981 96-96 96s-96-42.981-96-96v0c0-53.019 42.981-96 96-96s96 42.981 96 96zM704 448c0-106.039-85.961-192-192-192s-192 85.961-192 192v0c0 106.039 85.961 192 192 192s192-85.961 192-192v0z" />
<glyph unicode="&#xe947;" glyph-name="gift-16" d="M304 864c-44.183 0-80-35.817-80-80s35.817-80 80-80v0h147.776c-14.912 52.352-34.688 89.664-56.192 114.752-27.52 32.128-58.56 45.248-91.584 45.248zM128 784c0-28.8 6.912-56 19.2-80h-35.2c-61.856 0-112-50.144-112-112v0-128c0-44.672 26.176-83.2 64-101.248v-314.752c0-61.824 50.176-112 112-112h672c61.856 0 112 50.144 112 112v0 314.752c37.824 17.984 64 56.576 64 101.248v128c0 61.856-50.144 112-112 112v0h-35.2c12.122 23.262 19.233 50.801 19.233 80 0 97.202-78.798 176-176 176-0.011 0-0.023 0-0.034 0h0.002c-62.976 0-119.936-26.88-164.48-78.72-16.449-19.417-30.945-41.36-42.669-64.925l-0.851-1.891c-12.583 25.406-27.078 47.305-43.91 67.16l0.39-0.472c-44.608 51.968-101.568 78.848-164.48 78.848-97.202 0-176-78.798-176-176v0zM572.224 704h147.776c44.183 0 80 35.817 80 80s-35.817 80-80 80v0c-33.024 0-64-13.12-91.52-45.248-21.568-25.088-41.344-62.4-56.256-114.752zM454.464 608h-342.464c-8.837 0-16-7.163-16-16v0-128c0-8.832 7.168-16 16-16h352v160h-9.536zM560 608v-160h352c8.837 0 16 7.163 16 16v0 128c0 8.837-7.163 16-16 16v0h-352zM560 352h304v-304c0-8.837-7.163-16-16-16v0h-288v320zM464 352v-320h-288c-8.837 0-16 7.163-16 16v0 304h304z" />
<glyph unicode="&#xe948;" glyph-name="git-branch-16" d="M752 800c-26.51 0-48-21.49-48-48s21.49-48 48-48v0c26.51 0 48 21.49 48 48s-21.49 48-48 48v0zM608 752c0.025 79.51 64.486 143.956 144 143.956 79.529 0 144-64.471 144-144 0-62.323-39.592-115.399-94.997-135.448l-1.003-0.317v-40.192c0-88.366-71.634-160-160-160v0h-256c-35.346 0-64-28.654-64-64v0-72.192c56.444-20.369 96.064-73.474 96.064-135.832 0-79.564-64.5-144.064-144.064-144.064s-144.064 64.5-144.064 144.064c0 62.359 39.62 115.464 95.061 135.515l1.003 0.317v336.384c-56.408 20.365-96 73.441-96 135.765 0 79.529 64.471 144 144 144s144-64.471 144-144c0-62.323-39.592-115.399-94.997-135.448l-1.003-0.317v-117.504c18.786 8.412 40.715 13.312 63.789 13.312 0.074 0 0.148 0 0.223 0h255.988c35.346 0 64 28.654 64 64v0 40.192c-56.408 20.365-96 73.441-96 135.765 0 0.015 0 0.031 0 0.046v-0.002zM272 192c-26.51 0-48-21.49-48-48s21.49-48 48-48v0c26.51 0 48 21.49 48 48s-21.49 48-48 48v0zM224 752c0 26.51 21.49 48 48 48s48-21.49 48-48v0c0-26.51-21.49-48-48-48s-48 21.49-48 48v0z" />
<glyph unicode="&#xe949;" glyph-name="git-commit-16" d="M672 464v0c0 88.366-71.634 160-160 160s-160-71.634-160-160v0c0-88.366 71.634-160 160-160s160 71.634 160 160zM763.52 416c-23.521-119.15-127.172-207.762-251.52-207.762s-227.999 88.612-251.252 206.135l-0.268 1.627h-212.48c-26.51 0-48 21.49-48 48s21.49 48 48 48v0h212.48c23.382 119.281 127.086 208.038 251.52 208.038s228.137-88.757 251.254-206.416l0.266-1.622h212.48c26.51 0 48-21.49 48-48s-21.49-48-48-48v0h-212.48z" />
<glyph unicode="&#xe94a;" glyph-name="git-compare-16" d="M612.672 916.672l-153.344-153.344c-2.904-2.897-4.701-6.903-4.701-11.328s1.797-8.431 4.7-11.328v0l153.344-153.344c2.897-2.904 6.903-4.701 11.328-4.701 8.837 0 16 7.163 16 16 0 0.010 0 0.020 0 0.030v-0.002 105.344h64c35.346 0 64-28.654 64-64v0-360.192c-56.444-20.369-96.064-73.474-96.064-135.832 0-79.564 64.5-144.064 144.064-144.064s144.064 64.5 144.064 144.064c0 62.359-39.62 115.464-95.061 135.515l-1.003 0.317v360.192c0 88.366-71.634 160-160 160v0h-64v105.344c0 0.009 0 0.019 0 0.029 0 8.837-7.163 16-16 16-4.425 0-8.431-1.797-11.328-4.7v0zM384 192v105.344c0 0.009 0 0.019 0 0.029 0 8.837 7.163 16 16 16 4.425 0 8.431-1.797 11.328-4.7v0l153.344-153.344c2.904-2.897 4.701-6.903 4.701-11.328s-1.797-8.431-4.7-11.328v0l-153.344-153.344c-2.897-2.904-6.903-4.701-11.328-4.701-8.837 0-16 7.163-16 16 0 0.010 0 0.020 0 0.030v-0.002 105.344h-64c-88.366 0-160 71.634-160 160v0 360.192c-56.408 20.365-96 73.441-96 135.765 0 79.529 64.471 144 144 144s144-64.471 144-144c0-62.323-39.592-115.399-94.997-135.448l-1.003-0.317v-360.192c0-35.346 28.654-64 64-64v0h64zM816 192c-26.51 0-48-21.49-48-48s21.49-48 48-48v0c26.51 0 48 21.49 48 48s-21.49 48-48 48v0zM256 752c0-26.51-21.49-48-48-48s-48 21.49-48 48v0c0 26.51 21.49 48 48 48s48-21.49 48-48v0z" />
<glyph unicode="&#xe94b;" glyph-name="git-merge-16" d="M320 751.744v-0.064c-0.091-26.441-21.546-47.84-48-47.84-26.51 0-48 21.49-48 48s21.49 48 48 48c26.453 0 47.909-21.399 48-47.831v-0.265zM348.8 630.144c40.639 25.918 67.202 70.763 67.202 121.812 0 79.529-64.471 144-144 144s-144-64.471-144-144c0-62.322 39.591-115.398 94.995-135.447l1.003-0.317v-336.384c-56.408-20.365-96-73.441-96-135.765 0-79.529 64.471-144 144-144s144 64.471 144 144c0 62.323-39.592 115.399-94.997 135.448l-1.003 0.317v224.32c67.388-73.923 164.086-120.128 271.575-120.128 0.149 0 0.299 0 0.448 0h88.169c20.369-56.444 73.474-96.064 135.832-96.064 79.564 0 144.064 64.5 144.064 144.064s-64.5 144.064-144.064 144.064c-62.359 0-115.464-39.62-135.515-95.061l-0.317-1.003h-88.192c-0.007 0-0.015 0-0.023 0-105.797 0-197.486 60.402-242.464 148.603l-0.713 1.541zM816 384c26.51 0 48 21.49 48 48s-21.49 48-48 48v0c-26.51 0-48-21.49-48-48s21.49-48 48-48v0zM272 96c26.51 0 48 21.49 48 48s-21.49 48-48 48v0c-26.51 0-48-21.49-48-48s21.49-48 48-48v0z" />
<glyph unicode="&#xe94c;" glyph-name="git-pull-request-16" d="M459.328 763.328l153.344 153.344c2.897 2.904 6.903 4.701 11.328 4.701 8.837 0 16-7.163 16-16 0-0.010 0-0.020 0-0.030v0.002-306.688c0-0.009 0-0.019 0-0.029 0-8.837-7.163-16-16-16-4.425 0-8.431 1.797-11.328 4.7v0l-153.344 153.344c-2.904 2.897-4.701 6.903-4.701 11.328s1.797 8.431 4.7 11.328v0zM240 800c-26.51 0-48-21.49-48-48s21.49-48 48-48v0c26.51 0 48 21.49 48 48s-21.49 48-48 48v0zM96 752c0.025 79.51 64.486 143.956 144 143.956 79.529 0 144-64.471 144-144 0-62.323-39.592-115.399-94.997-135.448l-1.003-0.317v-336.384c56.444-20.369 96.064-73.474 96.064-135.832 0-79.564-64.5-144.064-144.064-144.064s-144.064 64.5-144.064 144.064c0 62.359 39.62 115.464 95.061 135.515l1.003 0.317v336.384c-56.408 20.365-96 73.441-96 135.765 0 0.015 0 0.031 0 0.046v-0.002zM704 800h-64v-96h64c35.346 0 64-28.654 64-64v0-360.192c-56.444-20.369-96.064-73.474-96.064-135.832 0-79.564 64.5-144.064 144.064-144.064s144.064 64.5 144.064 144.064c0 62.359-39.62 115.464-95.061 135.515l-1.003 0.317v360.192c0 88.366-71.634 160-160 160v0zM768 144c0 26.51 21.49 48 48 48s48-21.49 48-48v0c0-26.51-21.49-48-48-48s-48 21.49-48 48v0zM240 192c-26.51 0-48-21.49-48-48s21.49-48 48-48v0c26.51 0 48 21.49 48 48s-21.49 48-48 48v0z" />
<glyph unicode="&#xe94d;" glyph-name="globe-16" d="M98.752 496h174.912c9.216 132.736 55.424 240.384 101.12 316.672 7.68 12.608 15.168 24.384 22.592 35.328-159.981-47.023-278.413-183.384-298.43-350.015l-0.194-1.985zM273.664 400h-174.912c20.211-168.616 138.643-304.977 295.679-351.256l2.945-0.744c-6.19 8.876-13.631 20.402-20.742 32.149l-1.786 3.179c-45.76 76.288-91.968 183.936-101.184 316.672zM369.92 400h284.16c-8.779-99.853-40.082-190.843-88.762-270.003l1.53 2.675c-19.584-32.64-39.168-58.816-54.848-77.76-18.952 22.859-37.050 48.252-53.25 74.926l-1.598 2.834c-47.15 76.485-78.453 167.475-87.065 264.983l-0.167 2.345zM654.080 496h-284.16c8.779 99.853 40.082 190.843 88.762 270.003l-1.53-2.675c19.584 32.64 39.168 58.816 54.848 77.76 15.68-18.944 35.2-45.12 54.848-77.76 47.148-76.486 78.45-167.476 87.065-264.984l0.167-2.344zM750.336 400c-9.216-132.736-55.424-240.384-101.12-316.672-7.68-12.608-15.168-24.384-22.592-35.328 159.981 47.023 278.413 183.384 298.43 350.015l0.194 1.985h-174.912zM925.248 496h-174.912c-9.216 132.736-55.424 240.384-101.12 316.672-9.024 15.052-16.485 26.576-24.246 37.878l1.654-2.55c159.981-47.023 278.413-183.384 298.43-350.015l0.194-1.985zM512 960c-282.77 0-512-229.23-512-512s229.23-512 512-512v0c282.77 0 512 229.23 512 512s-229.23 512-512 512v0z" />
<glyph unicode="&#xe94e;" glyph-name="grabber-16" d="M640 128c35.346 0 64 28.654 64 64s-28.654 64-64 64v0c-35.346 0-64-28.654-64-64s28.654-64 64-64v0zM384 128c35.346 0 64 28.654 64 64s-28.654 64-64 64v0c-35.346 0-64-28.654-64-64s28.654-64 64-64v0zM448 448c0-35.346-28.654-64-64-64s-64 28.654-64 64v0c0 35.346 28.654 64 64 64s64-28.654 64-64v0zM640 384c35.346 0 64 28.654 64 64s-28.654 64-64 64v0c-35.346 0-64-28.654-64-64s28.654-64 64-64v0zM704 704c0-35.346-28.654-64-64-64s-64 28.654-64 64v0c0 35.346 28.654 64 64 64s64-28.654 64-64v0zM384 640c35.346 0 64 28.654 64 64s-28.654 64-64 64v0c-35.346 0-64-28.654-64-64s28.654-64 64-64v0z" />
<glyph unicode="&#xe94f;" glyph-name="graph-16" d="M96 848c0 26.51-21.49 48-48 48s-48-21.49-48-48v0-800c0-26.496 21.504-48 48-48h928c26.51 0 48 21.49 48 48s-21.49 48-48 48v0h-880v752zM1009.92 686.080c7.982 8.549 12.883 20.063 12.883 32.723 0 26.51-21.49 48-48 48-12.659 0-24.174-4.901-32.751-12.908l0.028 0.026-302.080-302.080-158.080 158.080c-8.684 8.674-20.676 14.038-33.92 14.038s-25.236-5.364-33.921-14.038l-207.999-207.999c-7.982-8.549-12.883-20.063-12.883-32.723 0-26.51 21.49-48 48-48 12.659 0 24.174 4.901 32.751 12.908l-0.028-0.026 174.080 174.080 158.080-158.080c8.684-8.674 20.676-14.038 33.92-14.038s25.236 5.364 33.921 14.038l335.999 335.999z" />
<glyph unicode="&#xe950;" glyph-name="heading-16" d="M240 832c26.51 0 48-21.49 48-48v0-272h448v272c0 26.51 21.49 48 48 48s48-21.49 48-48v0-672c0-26.51-21.49-48-48-48s-48 21.49-48 48v0 304h-448v-304c0-26.51-21.49-48-48-48s-48 21.49-48 48v0 672c0 26.51 21.49 48 48 48v0z" />
<glyph unicode="&#xe951;" glyph-name="heart-16" d="M272 800c-85.504 0-176-74.496-176-192 0-137.6 101.12-265.216 215.36-363.648 59.054-50.777 124.678-97.563 194.366-138.132l6.274-3.372c75.961 43.939 141.586 90.725 202.384 142.968l-1.744-1.464c114.24 98.432 215.36 226.048 215.36 363.648 0 117.504-90.496 192-176 192-87.872 0-166.976-63.104-193.856-157.184-5.936-20.247-24.343-34.781-46.144-34.781s-40.208 14.534-46.058 34.442l-0.086 0.339c-26.88 94.080-105.984 157.184-193.856 157.184zM512 48l-22.080-42.624-0.512 0.256-1.152 0.64c-9.25 4.754-15.741 8.371-22.139 12.128l2.299-1.248c-83.231 47.781-155.128 98.879-221.642 156.064l1.866-1.568c-117.76 101.568-248.64 253.952-248.64 436.352 0 170.496 133.504 288 272 288 99.008 0 185.792-51.328 240-129.28 54.208 77.952 140.992 129.28 240 129.28 138.496 0 272-117.504 272-288 0-182.4-130.88-334.784-248.64-436.352-70.259-60.366-148.724-115.158-232.409-161.697l-7.207-3.679-1.152-0.64-0.384-0.192h-0.128l-22.080 42.56zM512 48l22.080-42.624c-6.413-3.38-14.015-5.364-22.080-5.364s-15.667 1.984-22.344 5.49l0.264-0.126 22.080 42.624z" />
<glyph unicode="&#xe952;" glyph-name="heart-fill-16" d="M489.92 5.376l22.080 42.624 22.080-42.624c-6.413-3.38-14.015-5.364-22.080-5.364s-15.667 1.984-22.344 5.49l0.264-0.126zM489.92 5.376l22.080 42.624 22.080-42.624 0.512 0.256 1.152 0.64c9.25 4.754 15.741 8.371 22.139 12.128l-2.299-1.248c83.206 47.786 155.082 98.884 221.577 156.063l-1.865-1.567c117.888 101.568 248.704 253.952 248.704 436.352 0 170.496-133.504 288-272 288-99.008 0-185.792-51.328-240-129.28-54.208 77.952-140.992 129.28-240 129.28-138.496 0-272-117.504-272-288 0-182.4 130.88-334.784 248.64-436.352 70.258-60.367 148.722-115.16 232.409-161.698l7.207-3.678 1.152-0.64 0.384-0.192h0.128z" />
<glyph unicode="&#xe953;" glyph-name="history-16" d="M105.152 758.848l-77.824 77.824c-2.897 2.904-6.903 4.701-11.328 4.701-8.837 0-16-7.163-16-16 0-0.010 0-0.020 0-0.030v0.002-233.344c0-8.832 7.168-16 16-16h233.344c0.009 0 0.019 0 0.029 0 8.837 0 16 7.163 16 16 0 4.425-1.797 8.431-4.7 11.328v0l-86.912 86.912c76.401 105.78 199.374 173.82 338.238 173.82 229.75 0 416-186.25 416-416s-186.25-416-416-416c-214.558 0-391.178 162.432-413.598 371.035l-0.16 1.833c-2.582 24.32-22.986 43.101-47.776 43.101-26.526 0-48.029-21.504-48.029-48.029 0-1.736 0.092-3.45 0.272-5.138l-0.018 0.21c27.717-259.105 245.159-459.133 509.321-459.133 282.805 0 512.064 229.259 512.064 512.064s-229.259 512.064-512.064 512.064c-165.359 0-312.411-78.38-406.031-200.015l-0.89-1.203zM496 704c26.51 0 48-21.49 48-48v0-191.488l129.792-51.968c17.105-7.593 28.819-24.429 28.819-44.001 0-26.51-21.49-48-48-48-5.91 0-11.57 1.068-16.798 3.021l0.332-0.109-160 64c-17.814 7.279-30.139 24.472-30.144 44.543v224.001c0 26.51 21.49 48 48 48v0z" />
<glyph unicode="&#xe954;" glyph-name="home-16" d="M521.984 842.56c-2.71 2.179-6.193 3.497-9.984 3.497s-7.274-1.318-10.015-3.521l0.031 0.024-336-268.8c-3.68-2.957-6.016-7.457-6.016-12.503 0-0.014 0-0.029 0-0.043v0.002-449.216c0-8.832 7.168-16 16-16h176v336c0 26.51 21.49 48 48 48v0h224c26.51 0 48-21.49 48-48v0-336h176c8.837 0 16 7.163 16 16v0 449.28c-0.007 5.037-2.341 9.528-5.985 12.456l-0.031 0.024-336 268.8zM441.984 917.504c18.989 15.299 43.405 24.557 69.984 24.557s50.995-9.258 70.2-24.725l-0.216 0.168 336-268.8c26.56-21.248 42.048-53.44 42.048-87.488v-449.216c0-61.856-50.144-112-112-112v0h-224c-26.51 0-48 21.49-48 48v0 336h-128v-336c0-26.51-21.49-48-48-48v0h-224c-61.856 0-112 50.144-112 112v0 449.28c0 33.984 15.488 66.176 42.048 87.424l335.936 268.8z" />
<glyph unicode="&#xe955;" glyph-name="horizontal-rule-16" d="M0 464c0 26.51 21.49 48 48 48v0h928c26.51 0 48-21.49 48-48s-21.49-48-48-48v0h-928c-26.51 0-48 21.49-48 48v0z" />
<glyph unicode="&#xe956;" glyph-name="hourglass-16" d="M176 896h672c26.51 0 48-21.49 48-48s-21.49-48-48-48h-48v-80c0-99.114-47.432-187.15-121.6-243.2l-21.352-16.029c-3.863-2.921-6.36-7.554-6.36-12.771s2.496-9.85 6.4-12.8l22.077-16.554c73.403-55.496 120.835-143.532 120.835-242.646v-80h48c26.51 0 48-21.49 48-48s-21.49-48-48-48h-672c-26.51 0-48 21.49-48 48s21.49 48 48 48h48v80c0 99.114 47.432 187.15 121.6 243.2l21.312 16c8.576 6.4 8.576 19.2 0 25.6l-22.077 16.554c-73.403 55.496-120.835 143.532-120.835 242.646v80h-48c-26.51 0-48 21.49-48 48s21.49 48 48 48zM704 800h-384v-80c0-67.815 32.453-128.050 82.677-166.021l0.523-0.379 21.312-16c59.776-44.8 59.776-134.4 0-179.2l-21.312-16c-50.747-38.35-83.2-98.585-83.2-166.4v0-80h384v80c0 67.815-32.453 128.050-82.677 166.021l-0.523 0.379-21.312 16c-27.325 20.65-44.8 53.084-44.8 89.6s17.475 68.95 44.518 89.396l0.282 0.204 21.312 16c50.747 38.35 83.2 98.585 83.2 166.4v0 80z" />
<glyph unicode="&#xe957;" glyph-name="hubot-16" d="M0 448c0 282.77 229.23 512 512 512s512-229.23 512-512v0-336c0-26.51-21.49-48-48-48s-48 21.49-48 48v0 336c0 229.75-186.25 416-416 416s-416-186.25-416-416v0-336c0-26.51-21.49-48-48-48s-48 21.49-48 48v0 336zM352 176c0 26.51 21.49 48 48 48v0h224c26.51 0 48-21.49 48-48s-21.49-48-48-48v0h-224c-26.51 0-48 21.49-48 48v0zM192 528c0 61.824 50.176 112 112 112h416c61.824 0 112-50.176 112-112v-96c0-61.856-50.144-112-112-112v0h-416c-61.856 0-112 50.144-112 112v0 96zM286.080 561.92c8.684 8.674 20.676 14.038 33.92 14.038s25.236-5.364 33.921-14.038l62.079-62.079 62.080 62.080c8.684 8.674 20.676 14.038 33.92 14.038s25.236-5.364 33.921-14.038l62.079-62.079 62.080 62.080c8.787 9.411 21.267 15.277 35.117 15.277 26.51 0 48-21.49 48-48 0-13.85-5.866-26.33-15.249-35.092l-0.028-0.026-96-96c-8.684-8.674-20.676-14.038-33.92-14.038s-25.236 5.364-33.921 14.038l-62.079 62.079-62.080-62.080c-8.684-8.674-20.676-14.038-33.92-14.038s-25.236 5.364-33.921 14.038l-95.999 95.999c-8.674 8.684-14.038 20.676-14.038 33.92s5.364 25.236 14.038 33.921l-0.001-0.001z" />
<glyph unicode="&#xe958;" glyph-name="image-16" d="M112 800h800c8.837 0 16-7.163 16-16v-483.84l-210.531 190.509c-19.884 18.052-46.287 29.053-75.259 29.053-30.931 0-58.933-12.538-79.202-32.81l-388.95-389.013c-0.642-0.609-1.268-1.234-1.898-1.899h-60.16c-8.832 0-16 7.168-16 16v672c0 8.837 7.163 16 16 16zM912 96h-604.16l323.072 323.008c2.895 2.894 6.894 4.684 11.312 4.684 4.123 0 7.882-1.559 10.718-4.121l-0.014 0.012 275.072-248.896v-58.688c0-8.837-7.163-16-16-16v0zM1024 112v672c0 61.856-50.144 112-112 112v0h-800c-61.856 0-112-50.144-112-112v0-672c0-61.824 50.176-112 112-112h800c61.856 0 112 50.144 112 112v0zM352 576v0c0 17.673-14.327 32-32 32s-32-14.327-32-32v0c0-17.673 14.327-32 32-32s32 14.327 32 32zM448 576c0-70.692-57.308-128-128-128s-128 57.308-128 128v0c0 70.692 57.308 128 128 128s128-57.308 128-128v0z" />
<glyph unicode="&#xe959;" glyph-name="inbox-16" d="M179.2 828.16c17.582 40.234 57.031 67.84 102.927 67.84 0.040 0 0.080 0 0.12 0h459.514c44.8 0 85.312-26.688 103.040-67.84l175.36-409.28c2.427-5.549 3.84-12.016 3.84-18.812 0-0.024 0-0.048 0-0.071v0.004-288c0-61.856-50.144-112-112-112v0h-800c-61.856 0-112 50.144-112 112v0 288c0 0.020 0 0.044 0 0.068 0 6.797 1.413 13.263 3.96 19.122l-0.12-0.31 175.36 409.28zM282.24 800c0 0 0 0-0.001 0-6.571 0-12.216-3.961-14.679-9.625l-0.040-0.103-146.752-342.272h183.232c15.65 0 29.55-7.489 38.313-19.079l0.087-0.121 81.6-108.8h176l81.6 108.8c8.85 11.711 22.75 19.2 38.4 19.2v0h183.232l-146.752 342.272c-2.503 5.767-8.149 9.728-14.719 9.728 0 0 0 0-0.001 0h-459.52zM928 352h-184l-81.6-108.8c-8.85-11.711-22.75-19.2-38.4-19.2v0h-224c-15.65 0-29.55 7.489-38.313 19.079l-0.087 0.121-81.6 108.8h-184v-240c0-8.832 7.168-16 16-16h800c8.837 0 16 7.163 16 16v0 240z" />
<glyph unicode="&#xe95a;" glyph-name="infinity-16" d="M224 576c33.6 0 71.744-15.616 116.864-46.528 32.512-22.464 65.536-50.56 99.84-81.472-34.304-30.912-67.264-59.072-99.904-81.472-44.992-30.912-83.2-46.528-116.8-46.528-69.504 0-128 58.496-128 128s58.496 128 128 128zM512 513.024c37.76 34.112 77.056 68.224 116.8 95.552 51.008 35.072 108.8 63.424 171.2 63.424 122.496 0 224-101.504 224-224s-101.504-224-224-224c-62.4 0-120.192 28.416-171.2 63.424-39.744 27.328-79.040 61.44-116.8 95.552-37.76-34.112-77.056-68.224-116.8-95.552-51.008-35.008-108.8-63.424-171.2-63.424-122.496 0-224 101.504-224 224s101.504 224 224 224c62.4 0 120.192-28.352 171.2-63.424 39.744-27.328 79.040-61.44 116.8-95.552zM583.296 448c34.304-30.912 67.328-59.008 99.84-81.472 45.056-30.912 83.2-46.528 116.864-46.528 69.504 0 128 58.496 128 128s-58.496 128-128 128c-33.6 0-71.808-15.616-116.8-46.528-32.64-22.4-65.6-50.56-99.904-81.472z" />
<glyph unicode="&#xe95b;" glyph-name="info-16" d="M512 864c-229.75 0-416-186.25-416-416s186.25-416 416-416v0c229.75 0 416 186.25 416 416s-186.25 416-416 416v0zM0 448c0 282.77 229.23 512 512 512s512-229.23 512-512v0c0-282.77-229.23-512-512-512s-512 229.23-512 512v0zM416 464c0 26.51 21.49 48 48 48v0h64c26.51 0 48-21.49 48-48v0-176h16c26.51 0 48-21.49 48-48s-21.49-48-48-48v0h-128c-26.51 0-48 21.49-48 48s21.49 48 48 48v0h16v128h-16c-26.51 0-48 21.49-48 48v0zM512 576c35.346 0 64 28.654 64 64s-28.654 64-64 64v0c-35.346 0-64-28.654-64-64s28.654-64 64-64v0z" />
<glyph unicode="&#xe95c;" glyph-name="issue-closed-16" d="M96 448c0 0.005 0 0.010 0 0.016 0 229.75 186.25 416 416 416 101.287 0 194.12-36.199 266.267-96.365l-0.667 0.541c8.13-6.534 18.576-10.487 29.946-10.487 26.51 0 48 21.49 48 48 0 14.461-6.395 27.429-16.512 36.229l-0.058 0.050c-87.972 73.375-202.22 117.92-326.871 117.92-282.77 0-512-229.23-512-512s229.23-512 512-512c233.262 0 430.091 155.989 491.863 369.343l0.897 3.617c1.143 3.903 1.8 8.387 1.8 13.024 0 26.514-21.494 48.008-48.008 48.008-21.877 0-40.336-14.633-46.124-34.645l-0.084-0.339c-50.822-176.436-210.818-303.318-400.448-303.318-229.75 0-416 186.25-416 416 0 0.143 0 0.286 0 0.429v-0.023zM512 192c35.346 0 64 28.654 64 64s-28.654 64-64 64v0c-35.346 0-64-28.654-64-64s28.654-64 64-64v0zM512 704c26.51 0 48-21.49 48-48v0-224c0-26.51-21.49-48-48-48s-48 21.49-48 48v0 224c0 26.51 21.49 48 48 48v0zM817.92 430.080l192 192c7.982 8.549 12.883 20.063 12.883 32.723 0 26.51-21.49 48-48 48-12.659 0-24.174-4.901-32.751-12.908l0.028 0.026-158.080-158.080-62.080 62.080c-8.681 8.681-20.673 14.050-33.92 14.050-26.493 0-47.97-21.477-47.97-47.97 0-13.247 5.369-25.239 14.050-33.92l96-96c8.684-8.674 20.676-14.038 33.92-14.038s25.236 5.364 33.921 14.038l-0.001-0.001z" />
<glyph unicode="&#xe95d;" glyph-name="issue-opened-16" d="M512 864c-229.75 0-416-186.25-416-416s186.25-416 416-416v0c229.75 0 416 186.25 416 416s-186.25 416-416 416v0zM0 448c0 282.77 229.23 512 512 512s512-229.23 512-512v0c0-282.77-229.23-512-512-512s-512 229.23-512 512v0zM576 256c0-35.346-28.654-64-64-64s-64 28.654-64 64v0c0 35.346 28.654 64 64 64s64-28.654 64-64v0zM560 656c0 26.51-21.49 48-48 48s-48-21.49-48-48v0-224c0-26.51 21.49-48 48-48s48 21.49 48 48v0 224z" />
<glyph unicode="&#xe95e;" glyph-name="issue-reopened-16" d="M512 864c-0.101 0-0.221 0-0.341 0-138.75 0-261.613-68.022-337.059-172.538l-0.839-1.222 86.912-86.912c2.904-2.897 4.701-6.903 4.701-11.328 0-8.837-7.163-16-16-16-0.010 0-0.020 0-0.030 0h-233.342c-8.837 0-16 7.163-16 16v0 233.344c0 0.009 0 0.019 0 0.029 0 8.837 7.163 16 16 16 4.425 0 8.431-1.797 11.328-4.7v0l77.824-77.824c94.497 122.842 241.542 201.226 406.895 201.226 264.153 0 481.585-200.041 509.069-456.897l0.195-2.249c0.201-1.648 0.316-3.555 0.316-5.49 0-24.747-18.778-45.108-42.862-47.613l-0.206-0.017c-1.483-0.163-3.204-0.255-4.946-0.255-24.932 0-45.424 19.009-47.775 43.324l-0.015 0.196c-22.582 210.469-199.23 372.928-413.822 372.928-0.001 0-0.002 0-0.002 0v0zM45.568 447.744c1.456 0.157 3.146 0.246 4.856 0.246 24.793 0 45.196-18.797 47.734-42.918l0.018-0.208c22.6-210.451 199.239-372.89 413.818-372.89 138.859 0 261.83 68.024 337.407 172.567l0.839 1.219-86.912 86.912c-2.904 2.897-4.701 6.903-4.701 11.328 0 8.837 7.163 16 16 16 0.010 0 0.020 0 0.030 0h233.342c8.837 0 16-7.163 16-16v0-233.344c0-0.009 0-0.019 0-0.029 0-8.837-7.163-16-16-16-4.425 0-8.431 1.797-11.328 4.7v0l-77.824 77.824c-94.497-122.842-241.542-201.226-406.895-201.226-264.153 0-481.585 200.041-509.069 456.897l-0.195 2.249c-0.161 1.476-0.253 3.187-0.253 4.919 0 24.795 18.801 45.2 42.925 47.735l0.208 0.018zM576 256c0-35.346-28.654-64-64-64s-64 28.654-64 64v0c0 35.346 28.654 64 64 64s64-28.654 64-64v0zM560 656c0 26.51-21.49 48-48 48s-48-21.49-48-48v0-224c0-26.51 21.49-48 48-48s48 21.49 48 48v0 224z" />
<glyph unicode="&#xe95f;" glyph-name="italic-16" d="M384 784c0 26.51 21.49 48 48 48v0h416c26.51 0 48-21.49 48-48s-21.49-48-48-48v0h-160.32l-246.912-576h151.232c26.51 0 48-21.49 48-48s-21.49-48-48-48v0h-416c-26.51 0-48 21.49-48 48s21.49 48 48 48v0h160.32l246.912 576h-151.232c-26.51 0-48 21.49-48 48v0z" />
<glyph unicode="&#xe960;" glyph-name="kebab-horizontal-16" d="M512 384c53.019 0 96 42.981 96 96s-42.981 96-96 96v0c-53.019 0-96-42.981-96-96s42.981-96 96-96v0zM96 384c53.019 0 96 42.981 96 96s-42.981 96-96 96v0c-53.019 0-96-42.981-96-96s42.981-96 96-96v0zM928 384c53.019 0 96 42.981 96 96s-42.981 96-96 96v0c-53.019 0-96-42.981-96-96s42.981-96 96-96v0z" />
<glyph unicode="&#xe961;" glyph-name="key-16" d="M416 608c0.060 141.34 114.652 255.896 256 255.896 141.385 0 256-114.615 256-256s-114.615-256-256-256c-29.057 0-56.984 4.841-83.017 13.761l1.801-0.536c-4.553 1.579-9.8 2.49-15.26 2.49-13.231 0-25.211-5.353-33.893-14.011l0.001 0.001-65.472-65.6h-76.16c-26.51 0-48-21.49-48-48v0-76.16l-3.84-3.84h-76.16c-26.51 0-48-21.49-48-48v0-76.16l-3.84-3.84h-108.16c-8.837 0-16 7.163-16 16v0 108.16l321.536 321.472c8.686 8.686 14.058 20.686 14.058 33.94 0 5.442-0.906 10.673-2.575 15.549l0.1-0.338c-8.318 24.126-13.12 51.928-13.12 80.852 0 0.128 0 0.256 0 0.384v-0.020zM672 960c-0.018 0-0.039 0-0.060 0-194.404 0-352-157.596-352-352 0-29.254 3.569-57.675 10.295-84.851l-0.506 2.419-315.648-315.648c-8.689-8.679-14.068-20.67-14.080-33.918v-128.002c0-61.824 50.176-112 112-112h128c13.25 0.012 25.241 5.391 33.919 14.079l32.001 32.001c8.689 8.679 14.068 20.67 14.080 33.918v48.002h48c13.25 0.012 25.241 5.391 33.919 14.079l32.001 32.001c8.689 8.679 14.068 20.67 14.080 33.918v48.002h48c13.25 0.012 25.241 5.391 33.919 14.079l59.649 59.649c24.682-6.181 53.018-9.728 82.182-9.728 194.404 0 352 157.596 352 352 0 194.316-157.453 351.857-351.736 352h-0.014zM704 576c35.346 0 64 28.654 64 64s-28.654 64-64 64v0c-35.346 0-64-28.654-64-64s28.654-64 64-64v0z" />
<glyph unicode="&#xe962;" glyph-name="law-16" d="M560 912v-80h63.047c20.412-0.024 39.545-5.508 55.481-14.784l82.483-47.063c2.356-1.368 5.092-2.151 8.013-2.153h142.976c26.51 0 48-21.49 48-48s-21.49-48-48-48h-27.328l134.981-299.989c2.787-6.082 4.341-12.847 4.341-19.975 0-13.262-5.379-25.268-14.074-33.956l-33.92 33.92 33.856-33.984-0.064-0.128-0.512-0.512-0.384-0.32-0.64-0.64-2.88-2.56 0.339 0.278c-13.124-11.056-27.531-20.638-44.243-29.078-29.888-14.976-73.152-29.056-129.472-29.056l0.186 0.002c-1.221-0.015-2.444-0.023-3.669-0.023-45.854 0-89.2 10.735-125.989 29.077l-1.278 0.59c-15.433 7.854-29.84 17.435-42.626 28.21l-2.88 2.56-1.024 0.96-0.64 0.64v0.064c-8.695 8.687-14.074 20.694-14.074 33.956 0 7.128 1.554 13.893 4.218 19.676l135.168 300.288h-10.368c-19.52 0-38.656 5.056-55.552 14.784l-82.483 47.063c-2.356 1.368-5.092 2.151-8.013 2.153h-62.976v-608h160c26.51 0 48-21.49 48-48s-21.49-48-48-48h-416c-26.51 0-48 21.49-48 48s21.49 48 48 48h160v608h-62.977c-2.92-0.002-5.656-0.785-7.935-2.112l-82.496-47.168c-16.96-9.6-36.096-14.72-55.616-14.72h-10.368l135.045-299.989c2.787-6.082 4.341-12.847 4.341-19.975 0-13.262-5.379-25.268-14.074-33.956l-33.92 33.92 33.856-33.984-0.064-0.128-0.512-0.512-1.024-0.96-2.88-2.56 0.34 0.279c-13.125-11.055-27.532-20.636-44.244-29.079-29.888-14.976-73.152-29.056-129.472-29.056l0.186 0.002c-1.221-0.015-2.444-0.023-3.669-0.023-45.854 0-89.2 10.735-125.989 29.077l-1.277 0.59c-15.434 7.852-29.841 17.433-42.627 28.21l-2.88 2.56-1.024 0.96-0.64 0.64v0.064c-8.695 8.687-14.074 20.694-14.074 33.956 0 7.128 1.554 13.893 4.218 19.676l135.168 300.288h-27.392c-26.51 0-48 21.49-48 48s21.49 48 48 48h142.973c0.019 0 0.039 0 0.058 0 2.923 0 5.663 0.784 7.945 2.112l82.432 47.168c16.96 9.6 36.096 14.72 55.616 14.72h62.976v80c0 26.51 21.49 48 48 48s48-21.49 48-48zM108.48 369.472c18.24-8.64 45.952-17.472 83.52-17.472s65.28 8.832 83.52 17.472l-83.52 185.6-83.52-185.6zM748.48 369.472c18.24-8.64 45.952-17.472 83.52-17.472s65.28 8.832 83.52 17.472l-83.52 185.6-83.52-185.6z" />
<glyph unicode="&#xe963;" glyph-name="light-bulb-16" d="M512 864c-151.232 0-256-108.16-256-240 0-62.976 27.136-104 62.976-147.456l13.696-16.192c14.272-16.896 30.080-35.584 43.072-54.272 18.176-26.304 34.368-57.344 39.744-95.36 0.163-1.486 0.256-3.209 0.256-4.953 0-26.51-21.49-48-48-48-23.487 0-43.034 16.869-47.186 39.153l-0.046 0.297c-2.56 18.048-10.432 35.008-23.68 54.208-11.789 16.339-23.166 30.519-35.197 44.106l0.509-0.586c-5.376 6.4-11.072 13.12-17.152 20.48-40.128 48.576-84.992 111.552-84.992 208.576 0 188.16 151.232 336 352 336s352-147.84 352-336c0-97.024-44.864-160-84.992-208.576-6.080-7.36-11.776-14.080-17.152-20.416-13.248-15.68-24.512-28.992-34.624-43.584-13.312-19.2-21.12-36.16-23.68-54.208-3.439-23.432-23.403-41.218-47.52-41.218-26.511 0-48.002 21.491-48.002 48.002 0 2.393 0.175 4.746 0.513 7.045l-0.032-0.261c5.376 37.952 21.568 68.992 39.744 95.296 12.992 18.688 28.8 37.376 43.072 54.272 4.8 5.632 9.408 11.072 13.632 16.192 35.904 43.456 63.040 84.48 63.040 147.456 0 131.84-104.768 240-256 240zM384-16c0 26.51 21.49 48 48 48v0h160c26.51 0 48-21.49 48-48s-21.49-48-48-48v0h-160c-26.51 0-48 21.49-48 48v0zM368 192c-26.51 0-48-21.49-48-48s21.49-48 48-48v0h288c26.51 0 48 21.49 48 48s-21.49 48-48 48v0h-288z" />
<glyph unicode="&#xe964;" glyph-name="link-16" d="M497.6 750.4c-7.982-8.549-12.883-20.063-12.883-32.723 0-26.51 21.49-48 48-48 12.659 0 24.174 4.901 32.751 12.908l-0.028-0.026 80 80c23.176 23.176 55.194 37.511 90.56 37.511 70.732 0 128.071-57.339 128.071-128.071 0-35.366-14.335-67.384-37.511-90.56l-160-160c-23.168-23.193-55.189-37.541-90.56-37.541s-67.391 14.347-90.559 37.539l-0.001 0.001c-8.549 7.982-20.063 12.883-32.723 12.883-26.51 0-48-21.49-48-48 0-12.659 4.901-24.174 12.908-32.751l-0.026 0.028c40.537-40.541 96.54-65.616 158.4-65.616s117.863 25.075 158.4 65.616l160 160c40.538 40.538 65.611 96.541 65.611 158.4 0 123.718-100.293 224.011-224.011 224.011-61.859 0-117.862-25.073-158.4-65.611l-80-80zM197.44 133.44c-23.193 23.168-37.541 55.189-37.541 90.56s14.347 67.391 37.539 90.559l160.001 160.001c23.168 23.193 55.189 37.541 90.56 37.541s67.391-14.347 90.559-37.539l0.001-0.001c8.549-7.982 20.063-12.883 32.723-12.883 26.51 0 48 21.49 48 48 0 12.659-4.901 24.174-12.908 32.751l0.026-0.028c-40.537 40.541-96.54 65.616-158.4 65.616s-117.863-25.075-158.4-65.616l-160-160c-40.538-40.538-65.611-96.541-65.611-158.4 0-123.718 100.293-224.011 224.011-224.011 61.859 0 117.862 25.073 158.4 65.611l80 80c7.982 8.549 12.883 20.063 12.883 32.723 0 26.51-21.49 48-48 48-12.659 0-24.174-4.901-32.751-12.908l0.028 0.026-80-80c-23.168-23.193-55.189-37.541-90.56-37.541s-67.391 14.347-90.559 37.539l-0.001 0.001z" />
<glyph unicode="&#xe965;" glyph-name="link-external-16" d="M678.656 896h265.344c8.837 0 16-7.163 16-16v0-265.344c0-0.009 0-0.019 0-0.029 0-8.837-7.163-16-16-16-4.425 0-8.431 1.797-11.328 4.7v0l-98.752 98.752-240-240c-8.549-7.982-20.063-12.883-32.723-12.883-26.51 0-48 21.49-48 48 0 12.659 4.901 24.174 12.908 32.751l-0.026-0.028 240 240-98.752 98.752c-2.904 2.897-4.701 6.903-4.701 11.328 0 8.837 7.163 16 16 16 0.010 0 0.020 0 0.030 0h-0.002zM240 832c-61.856 0-112-50.144-112-112v0-544c0-61.824 50.176-112 112-112h544c61.856 0 112 50.144 112 112v0 224c0 26.51-21.49 48-48 48s-48-21.49-48-48v0-224c0-8.837-7.163-16-16-16v0h-544c-8.837 0-16 7.163-16 16v0 544c0 8.837 7.163 16 16 16v0h224c26.51 0 48 21.49 48 48s-21.49 48-48 48v0h-224z" />
<glyph unicode="&#xe966;" glyph-name="list-ordered-16" d="M128.192 800c-0.019 17.659-14.338 31.967-32 31.967-5.201 0-10.113-1.241-14.454-3.443l0.182 0.084-64.192-32c-10.472-5.403-17.508-16.145-17.508-28.53 0-17.673 14.327-32 32-32 5.115 0 9.95 1.2 14.238 3.334l-0.186-0.084 17.92 8.96v-172.288h-32.192c-17.673 0-32-14.327-32-32s14.327-32 32-32v0h128.384c17.673 0 32 14.327 32 32s-14.327 32-32 32v0h-32.192v224zM320 752c0 26.51 21.49 48 48 48v0h544c26.51 0 48-21.49 48-48s-21.49-48-48-48v0h-544c-26.51 0-48 21.49-48 48v0zM320 432c0 26.51 21.49 48 48 48v0h544c26.51 0 48-21.49 48-48s-21.49-48-48-48v0h-544c-26.51 0-48 21.49-48 48v0zM320 112c0 26.51 21.49 48 48 48v0h544c26.51 0 48-21.49 48-48s-21.49-48-48-48v0h-544c-26.51 0-48 21.49-48 48v0zM59.136 299.52l0.192 0.256c2.718 3.692 5.75 6.907 9.128 9.721l0.088 0.071c7.303 6.407 16.911 10.345 27.438 10.432h0.018c12.48 0 19.584-4.352 23.936-9.344 5.109-6.229 8.206-14.278 8.206-23.052 0-0.356-0.005-0.711-0.015-1.064l0.001 0.052c0-28.992-17.216-43.648-51.2-68.992l-2.24-1.6c-30.4-22.72-74.688-55.68-74.688-120 0-17.673 14.327-32 32-32v0h128.192c17.673 0 32 14.327 32 32s-14.327 32-32 32v0h-86.848c8.448 12.608 22.464 23.808 41.856 38.208l3.008 2.24c30.080 22.4 73.984 54.912 73.984 118.080 0 23.36-7.552 47.616-24.128 66.432-17.152 19.392-42.112 30.976-72.064 30.976-30.72 0-53.76-12.928-68.352-25.088-8.505-7.118-15.856-15.202-22.010-24.171l-0.262-0.405-0.448-0.704-0.192-0.384-0.064-0.064c-2.856-4.694-4.546-10.37-4.546-16.441 0-17.673 14.327-32 32-32 11.305 0 21.242 5.863 26.934 14.714l0.076 0.127zM32 316.48v0z" />
<glyph unicode="&#xe967;" glyph-name="list-unordered-16" d="M128 704c35.346 0 64 28.654 64 64s-28.654 64-64 64v0c-35.346 0-64-28.654-64-64s28.654-64 64-64v0zM368 800c-26.51 0-48-21.49-48-48s21.49-48 48-48v0h544c26.51 0 48 21.49 48 48s-21.49 48-48 48v0h-544zM368 480c-26.51 0-48-21.49-48-48s21.49-48 48-48v0h544c26.51 0 48 21.49 48 48s-21.49 48-48 48v0h-544zM368 160c-26.51 0-48-21.49-48-48s21.49-48 48-48v0h544c26.51 0 48 21.49 48 48s-21.49 48-48 48v0h-544zM192 448c0-35.346-28.654-64-64-64s-64 28.654-64 64v0c0 35.346 28.654 64 64 64s64-28.654 64-64v0zM128 64c35.346 0 64 28.654 64 64s-28.654 64-64 64v0c-35.346 0-64-28.654-64-64s28.654-64 64-64v0z" />
<glyph unicode="&#xe968;" glyph-name="location-16" d="M738.304 738.304c57.926-57.911 93.756-137.924 93.756-226.304s-35.829-168.392-93.755-226.303l-226.305-226.177-226.304 226.24c-57.916 57.916-93.738 137.927-93.738 226.304 0 176.754 143.288 320.042 320.042 320.042 88.377 0 168.388-35.822 226.304-93.738v0-0.064zM806.144 217.856c75.289 75.283 121.856 179.287 121.856 294.169 0 229.75-186.25 416-416 416s-416-186.25-416-416c0-114.881 46.567-218.886 121.856-294.168l226.24-226.304c17.375-17.386 41.383-28.14 67.904-28.14s50.529 10.754 67.903 28.139l226.241 226.305zM512 384c70.692 0 128 57.308 128 128s-57.308 128-128 128v0c-70.692 0-128-57.308-128-128s57.308-128 128-128v0z" />
<glyph unicode="&#xe969;" glyph-name="lock-16" d="M256 704v-128h-16c-61.856 0-112-50.144-112-112v0-352c0-61.824 50.176-112 112-112h544c61.856 0 112 50.144 112 112v0 352c0 61.856-50.144 112-112 112v0h-16v128c0 141.385-114.615 256-256 256s-256-114.615-256-256v0zM672 576h-320v128c0 88.366 71.634 160 160 160s160-71.634 160-160v-128zM768 480h16c8.837 0 16-7.163 16-16v0-352c0-8.837-7.163-16-16-16v0h-544c-8.837 0-16 7.163-16 16v0 352c0 8.837 7.163 16 16 16v0h528z" />
<glyph unicode="&#xe96a;" glyph-name="mail-16" d="M112 832h800c61.856 0 112-50.144 112-112v-544c0-61.856-50.144-112-112-112h-800c-61.824 0-112 50.176-112 112v495.168l0.001-0.045c-0.006 0.302-0.008 0.606-0.008 0.909s0.003 0.607 0.008 0.864v47.104c0 61.856 50.144 112 112 112zM928 699.52v20.48c0 8.837-7.163 16-16 16v0h-800c-8.837 0-16-7.163-16-16v0-20.48l416-243.84 416 243.84zM96 588.16v-412.224c0-8.832 7.168-16 16-16h800c8.837 0 16 7.163 16 16v0 412.288l-391.68-229.632c-6.961-4.158-15.353-6.617-24.32-6.617s-17.359 2.459-24.54 6.739l0.22-0.121-391.68 229.632z" />
<glyph unicode="&#xe96b;" glyph-name="markdown-16" d="M950.4 768h-876.8c-40.32 0-73.6-33.28-73.6-73.6v-492.16c0-40.96 33.28-74.24 73.6-74.24h876.16c40.96 0 73.6 33.28 73.6 73.6v492.8c0.64 40.32-32.64 73.6-72.96 73.6zM576 256h-128v192l-96-122.88-96 122.88v-192h-128v384h128l96-128 96 128h128v-384zM767.36 224l-159.36 224h96v192h128v-192h96l-160.64-224z" />
<glyph unicode="&#xe96c;" glyph-name="mark-github-16" d="M512 960c-282.88 0-512-229.12-512-512 0-226.56 146.56-417.92 350.080-485.76 25.6-4.48 35.2 10.88 35.2 24.32 0 12.16-0.64 52.48-0.64 95.36-128.64-23.68-161.92 31.36-172.16 60.16-5.76 14.72-30.72 60.16-52.48 72.32-17.92 9.6-43.52 33.28-0.64 33.92 40.32 0.64 69.12-37.12 78.72-52.48 46.080-77.44 119.68-55.68 149.12-42.24 4.48 33.28 17.92 55.68 32.64 68.48-113.92 12.8-232.96 56.96-232.96 252.8 0 55.68 19.84 101.76 52.48 137.6-5.12 12.8-23.040 65.28 5.12 135.68 0 0 42.88 13.44 140.8-52.48 40.96 11.52 84.48 17.28 128 17.28s87.040-5.76 128-17.28c97.92 66.56 140.8 52.48 140.8 52.48 28.16-70.4 10.24-122.88 5.12-135.68 32.64-35.84 52.48-81.28 52.48-137.6 0-196.48-119.68-240-233.6-252.8 18.56-16 34.56-46.72 34.56-94.72 0-68.48-0.64-123.52-0.64-140.8 0-13.44 9.6-29.44 35.2-24.32 204.471 70.528 348.741 261.288 348.8 485.753v0.007c0 282.88-229.12 512-512 512z" />
<glyph unicode="&#xe96d;" glyph-name="megaphone-16" d="M996.544 923.392l0.287-0.125c-6.298 3.037-13.361 4.739-20.821 4.739-11.521 0-22.095-4.059-30.282-10.758l78.272-37.248v-672.003c-0.031-26.483-21.509-47.943-48-47.943-11.488 0-22.033 4.036-30.208 10.698h-0.128l-0.896 0.768 1.002-0.705c-8.507 6.274-17.296 12.186-27.946 18.625l2.843-1.599c-29.271 17.735-60.082 33.181-96.475 47.615-76.864 30.72-190.976 62.144-344.192 67.648 0.064-86.272 11.712-154.624 24.512-203.712 10.112-38.784 0.448-78.72-19.84-108.544-20.352-29.952-55.104-54.848-98.944-54.848h-76.608c-39.68 0-80.32 21.76-97.088 64-20.928 52.48-52.032 155.52-52.032 304v-0.004c0 0.024 0 0.048 0 0.072 0 0.877 0.023 1.748 0.064 2.492l-1.703 0.621c-93.075 38.322-158.598 129.919-158.598 236.819 0 141.385 114.615 256 256 256 0.084 0 0.167 0 0.238 0h121.144c0.050 0 0.1 0 0.15 0 20.398 0 39.403-5.964 54.962-16 177.472 0.064 307.328 34.752 391.936 68.544l4.296 1.526c32.101 12.915 62.912 28.361 89.336 44.49l1.572 0.884c7.38 4.47 14.583 9.203 20.508 13.452l4.864 3.584 0.96 0.768c0 0 0.064 0 0 0l78.272-37.249c0 0.004 0 0.007 0 0.011 0 19.046-11.092 35.5-27.456 43.381zM256.128 288c2.112-126.016 28.8-211.584 45.056-252.544 0.256-0.64 0.64-1.28 1.728-1.92 1.679-0.97 3.694-1.542 5.842-1.542 0.129 0 0.257 0.002 0.385 0.006h76.589c5.312 0 12.928 3.008 19.52 12.8 4.502 6.266 7.2 14.093 7.2 22.55 0 2.779-0.291 5.49-0.845 8.104l0.045-0.254c-16.849 63.759-26.847 137.086-27.517 212.641l-0.003 0.415c-2.093-0.156-4.548-0.249-7.024-0.256h-120.976zM480 399.168c166.464-5.568 292.672-39.68 379.84-74.624 26.24-10.496 49.024-21.12 68.16-30.912v500.736c-19.2-9.856-41.856-20.416-68.16-30.912-87.168-34.88-213.44-69.056-379.84-74.624v-289.664zM96 544v0c0-88.366 71.634-160 160-160h121.152c3.782 0 6.848 3.066 6.848 6.848v306.304c0 3.776-3.072 6.848-6.848 6.848h-121.152c-88.366 0-160-71.634-160-160z" />
<glyph unicode="&#xe96e;" glyph-name="mention-16" d="M304 808.32c-125.249-73.271-208.046-207.127-208.046-360.32 0-229.776 186.27-416.046 416.046-416.046 76.583 0 148.332 20.692 209.964 56.789l-1.964-1.063c6.532 3.547 14.303 5.633 22.561 5.633 26.51 0 48-21.49 48-48 0-17.083-8.924-32.082-22.365-40.588l-0.197-0.116c-73.414-43.093-161.69-68.543-255.91-68.543-282.77 0-512 229.23-512 512s229.23 512 512 512c275.027 0 499.406-216.848 511.488-488.895l0.038-1.089c0.244-1.825 0.384-3.934 0.384-6.076 0-0.002 0-0.003 0-0.005v0-96c0-0.031 0-0.068 0-0.104 0-97.202-78.798-176-176-176-62.213 0-116.888 32.28-148.187 81.005l-0.421 0.7c-46.87-50.256-113.472-81.586-187.392-81.586-141.385 0-256 114.615-256 256s114.615 256 256 256c141.385 0 256-114.615 256-256 0-0.005 0-0.010 0-0.015v0.001-80c0-44.183 35.817-80 80-80s80 35.817 80 80v0 88.512c-4.751 226.076-189.142 407.527-415.914 407.527-76.618 0-148.399-20.713-210.048-56.846l1.961 1.062v0.064zM672 448c0 88.366-71.634 160-160 160s-160-71.634-160-160v0c0-88.366 71.634-160 160-160s160 71.634 160 160v0z" />
<glyph unicode="&#xe96f;" glyph-name="meter-16" d="M512 864c-229.708-0.056-415.902-186.284-415.902-416 0-229.75 186.25-416 416-416s416 186.25 416 416c0 56.891-11.42 111.115-32.093 160.505l1.019-2.745c-2.277 5.392-3.599 11.662-3.599 18.24 0 26.518 21.497 48.015 48.015 48.015 19.94 0 37.041-12.155 44.298-29.459l0.118-0.316c24.173-57.391 38.219-124.106 38.219-194.101 0-282.77-229.23-512-512-512s-512 229.23-512 512c0 282.77 229.23 512 512 512 69.996 0 136.711-14.046 197.48-39.473l-3.379 1.254c17.648-7.368 29.825-24.486 29.825-44.448 0-26.528-21.505-48.033-48.033-48.033-6.566 0-12.824 1.317-18.525 3.702l0.317-0.118c-46.495 19.592-100.546 30.976-157.256 30.976-0.177 0-0.354 0-0.531 0h0.027zM913.92 849.92c8.674-8.684 14.038-20.676 14.038-33.92s-5.364-25.236-14.038-33.921l-260.031-260.095c11.433-21.474 18.147-46.959 18.147-74.013 0-88.366-71.634-160-160-160s-160 71.634-160 160c0 88.366 71.634 160 160 160 27.053 0 52.538-6.714 74.88-18.567l-0.867 0.42 260.032 260.096c8.684 8.674 20.676 14.038 33.92 14.038s25.236-5.364 33.921-14.038l-0.001 0.001zM448 448c0 35.346 28.654 64 64 64s64-28.654 64-64v0c0-35.346-28.654-64-64-64s-64 28.654-64 64v0z" />
<glyph unicode="&#xe970;" glyph-name="milestone-16" d="M496 960c26.51 0 48-21.49 48-48v0-144h232.576c26.496 0 52.096-9.408 72.32-26.496l132.48-112c24.327-20.676 39.66-51.299 39.66-85.504s-15.333-64.828-39.5-85.372l-0.16-0.132-132.48-112c-19.373-16.471-44.676-26.491-72.319-26.496h-232.577v-336c0-26.51-21.49-48-48-48s-48 21.49-48 48v0 336h-272c-61.856 0-112 50.144-112 112v0 224c0 61.824 50.176 112 112 112h272v144c0 26.51 21.49 48 48 48v0zM496 416h280.576c3.946 0.024 7.549 1.473 10.325 3.858l-0.021-0.018 132.48 112c3.437 2.952 5.601 7.303 5.601 12.16s-2.164 9.208-5.58 12.142l-0.021 0.018-132.48 112c-2.755 2.367-6.358 3.816-10.299 3.84h-600.581c-8.837 0-16-7.163-16-16v0-224c0-8.832 7.168-16 16-16h320z" />
<glyph unicode="&#xe971;" glyph-name="mirror-16" d="M560 848c0 26.51-21.49 48-48 48s-48-21.49-48-48v0-32c0-26.51 21.49-48 48-48s48 21.49 48 48v0 32zM512 704c26.51 0 48-21.49 48-48v0-32c0-26.51-21.49-48-48-48s-48 21.49-48 48v0 32c0 26.51 21.49 48 48 48v0zM560 464c0 26.51-21.49 48-48 48s-48-21.49-48-48v0-32c0-26.51 21.49-48 48-48s48 21.49 48 48v0 32zM512 320c26.51 0 48-21.49 48-48v0-32c0-26.51-21.49-48-48-48s-48 21.49-48 48v0 32c0 26.51 21.49 48 48 48v0zM512 128c26.51 0 48-21.49 48-48v0-32c0-26.51-21.49-48-48-48s-48 21.49-48 48v0 32c0 26.51 21.49 48 48 48v0zM995.008 764.096c17.199-7.554 28.992-24.438 28.992-44.076 0-0.007 0-0.014 0-0.021v0.001-544c-0.008-26.503-21.495-47.985-48-47.985-12.774 0-24.382 4.99-32.982 13.126l0.022-0.021-288 272c-9.261 8.769-15.024 21.152-15.024 34.88s5.763 26.111 15.002 34.859l0.022 0.021 288 272c8.581 8.13 20.199 13.129 32.985 13.129 6.862 0 13.387-1.44 19.291-4.034l-0.308 0.121zM757.888 448l170.112-160.64v321.28l-170.112-160.64zM0 176c0.008-26.503 21.495-47.985 48-47.985 12.774 0 24.382 4.99 32.982 13.126l-0.022-0.021 288 272c9.261 8.769 15.024 21.152 15.024 34.88s-5.763 26.111-15.002 34.859l-0.022 0.021-288 272c-8.578 8.116-20.186 13.105-32.96 13.105-26.505 0-47.992-21.482-48-47.985v-544.001zM96 608.64l170.112-160.64-170.112-160.64v321.28z" />
<glyph unicode="&#xe972;" glyph-name="moon-16" d="M614.272 858.176c8.686 8.683 20.684 14.054 33.936 14.054 5.849 0 11.453-1.046 16.636-2.961l-0.332 0.108c173.704-64.303 295.276-228.536 295.276-421.164 0-247.424-200.576-448-448-448-192.628 0-356.862 121.573-420.157 292.177l-1.007 3.099c-1.81 4.854-2.858 10.462-2.858 16.315 0 26.51 21.49 48 48 48 5.87 0 11.495-1.054 16.694-2.983l-0.332 0.108c35.709-13.367 76.975-21.103 120.047-21.103 194.404 0 352 157.596 352 352 0 43.072-7.736 84.338-21.895 122.482l0.792-2.435c-1.818 4.864-2.871 10.485-2.871 16.351 0 13.261 5.377 25.266 14.071 33.953v0zM717.696 733.696c1.49-13.716 2.34-29.625 2.34-45.732 0-247.424-200.576-448-448-448-16.107 0-32.016 0.85-47.684 2.508l1.951-0.167c64.694-88.955 168.428-146.122 285.514-146.122 194.404 0 352 157.596 352 352 0 117.086-57.167 220.821-145.112 284.814l-1.010 0.7z" />
<glyph unicode="&#xe973;" glyph-name="mortar-board-16" d="M492.352 891.776c5.775 2.656 12.531 4.206 19.648 4.206s13.873-1.549 19.948-4.328l-0.3 0.123 464-208c16.83-7.704 28.311-24.399 28.311-43.776s-11.481-36.072-28.012-43.653l-0.299-0.123-163.648-73.408v-178.816c0-65.536-51.84-111.936-106.24-139.072-57.152-28.608-132.8-44.928-213.76-44.928-17.792 0-35.2 0.768-52.224 2.304-24.37 2.513-43.215 22.936-43.215 47.761 0 26.51 21.49 48 48 48 1.312 0 2.611-0.053 3.897-0.156l-0.169 0.011c14.080-1.28 28.8-1.92 43.712-1.92 69.248 0 129.6 14.144 170.88 34.752 44.16 22.080 53.12 43.648 53.12 53.248v135.808l-204.352-91.584c-5.775-2.656-12.531-4.206-19.648-4.206s-13.873 1.549-19.948 4.328l0.3-0.123-236.352 105.856v-106.432c18.944-6.72 36.8-17.6 51.968-32.768 28.032-28.032 44.032-67.776 44.032-114.944v-192c0-26.51-21.49-48-48-48v0h-192c-26.51 0-48 21.49-48 48v0 192c0 47.168 16 86.912 44.032 114.944 15.168 15.168 33.024 26.048 51.968 32.768v149.568l-131.648 59.008c-16.83 7.704-28.311 24.399-28.311 43.776s11.481 36.072 28.012 43.653l0.299 0.123 464 208zM165.312 640l346.688-155.392 346.624 155.392-346.624 155.392-346.688-155.392zM160 240c0 24.832 8 39.104 16 47.040 8.133 8.032 19.314 12.993 31.655 12.993 0.121 0 0.243 0 0.364-0.001h-0.019c12.16 0 23.68-4.544 32-12.992 8-7.936 16-22.208 16-47.040v-144h-96v144z" />
</font>
</defs>
</svg>
